<?xml version="1.0" encoding="utf-8"?>
<!-- Generator: Adobe Illustrator 23.0.1, SVG Export Plug-In . SVG Version: 6.00 Build 0)  -->
<svg version="1.1" id="Layer_1" xmlns="http://www.w3.org/2000/svg" xmlns:xlink="http://www.w3.org/1999/xlink" x="0px" y="0px"
	 viewBox="0 0 128 128" style="enable-background:new 0 0 128 128;" xml:space="preserve">
<style type="text/css">
	.st0{fill:#00A99D;}
	.st1{fill:#1FE0C3;}
	.st2{fill:#FFFFFF;}
	.st3{fill:#EBEBEB;}
</style>
<path class="st0" d="M18,115L7.8,0.2h112.5L110,115.1l-46,12.7C63.9,127.8,18,115,18,115z"/>
<path class="st1" d="M64,118.1l37.3-10.3L110,9.6H64C64,9.6,64,118.1,64,118.1z"/>
<path class="st2" d="M64,51.2h18.6L84,36.7H64V22.7h35.3L99,26.4l-3.5,38.9H64V51.2z"/>
<path class="st3" d="M64.1,87.7L64.1,87.7l-15.8-4.2l-1-11.2H33.2l1.9,22.1l28.8,8h0.1V87.7z"/>
<path class="st2" d="M81.4,64.7l-1.7,18.8L64,87.8v14.7l28.9-8l0.2-2.3l2.4-27.4H81.4z"/>
<path class="st3" d="M64,22.7v14.1H30l-0.3-3.2l-0.6-7.1l-0.3-3.8C28.8,22.7,64,22.7,64,22.7z M64,51.2v14.1H48.5l-0.3-3.2l-0.6-7.1
	l-0.3-3.8C47.3,51.2,64,51.2,64,51.2z"/>
</svg>
