<?xml version="1.0" encoding="utf-8"?>
<!-- Generator: Adobe Illustrator 23.0.1, SVG Export Plug-In . SVG Version: 6.00 Build 0)  -->
<svg version="1.1" id="Layer_1" xmlns="http://www.w3.org/2000/svg" xmlns:xlink="http://www.w3.org/1999/xlink" x="0px" y="0px"
	 viewBox="0 0 128 128" style="enable-background:new 0 0 128 128;" xml:space="preserve">
<style type="text/css">
	.st0{fill:#00C4B3;}
	.st1{fill:#22D3C5;}
	.st2{fill:#00A99D;}
	.st3{fill:#00DCB5;}
</style>
<path class="st0" d="M35.2,34.9l-8.3-8.3v59.7l0.1,2.8c0,1.3,0.2,2.8,0.7,4.3l65.6,23.1l16.3-7.2C109.6,109.3,35.2,34.9,35.2,34.9z"
	/>
<path class="st1" d="M109.6,109.3l-16.3,7.2L27.9,93.4c1.3,4.8,4,10.1,7,13.2l21.3,21.2l47.6,0.1L109.6,109.3z"/>
<path class="st2" d="M1.7,65.1c-2.1,2.2-1,6.9,2.3,10.4l14.7,14.8l9.2,3.3c-0.3-1.5-0.7-3-0.7-4.3l-0.1-2.8l-0.2-59.8 M109.6,109.3
	l7.2-16.4l-23-65.6c-1.5-0.3-3-0.6-4.3-0.7l-2.9-0.1L27,26.6"/>
<path class="st3" d="M93.6,27.3C93.8,27.3,93.8,27.3,93.6,27.3C93.8,27.3,93.8,27.3,93.6,27.3z M109.6,109.3l17.7-5.8V54.8
	l-20.4-20.5c-3-3-8.3-5.8-13.2-7l23.1,65.6"/>
<path class="st0" d="M90.5,18.2L75.7,3.5c-3.4-3.4-8-4.4-10.4-2.3L26.9,26.6h59.5l2.9,0.1c1.3,0,2.8,0.2,4.3,0.7
	C93.6,27.4,90.5,18.2,90.5,18.2z"/>
</svg>
