<?xml version="1.0" encoding="utf-8"?>
<!-- Generator: Adobe Illustrator 23.0.1, SVG Export Plug-In . SVG Version: 6.00 Build 0)  -->
<svg version="1.1" id="Layer_1" xmlns="http://www.w3.org/2000/svg" xmlns:xlink="http://www.w3.org/1999/xlink" x="0px" y="0px"
	 viewBox="0 0 128 128" style="enable-background:new 0 0 128 128;" xml:space="preserve">
<style type="text/css">
	.st0{fill-rule:evenodd;clip-rule:evenodd;fill:#00A99D;}
</style>
<path class="st0" d="M47.7,69.1h15.6c-2.7-9.1-5.3-17.6-7.9-26.2C52.9,51.5,50.3,59.9,47.7,69.1z M125,0H1.9C-0.3,0,0,0.5,0,2.6
	v123.3c0,2.1-0.3,2.1,1.7,2.1h123.4c2.1,0,2.8,0.1,2.8-2.1V2.8C128,0.5,127.3,0,125,0z M77.5,96.5c-1.7,0-3.3-0.1-5,0
	c-1.2,0.1-1.6-0.4-1.9-1.4c-1.5-5-3.2-10-4.7-15c-0.3-1-0.8-1.4-1.8-1.4c-5.6,0.1-11.2,0.1-16.8,0c-1.2,0-1.7,0.3-2.1,1.5
	c-1.4,5-3,9.9-4.4,14.9c-0.3,1.1-0.8,1.5-1.9,1.4c-3.4-0.1-6.7,0-10.4,0c1-3.1,1.9-6,2.8-8.8c5.6-17.5,11.2-34.9,16.8-52.4
	c0.4-1.2,0.9-1.6,2.2-1.6c3.9,0.1,7.9,0,11.8,0c0.7,0,1.2,0,1.5,0.9c6.6,20.4,13.2,41,19.9,61.4c0,0.1,0,0.6,0,0.6L77.5,96.5
	L77.5,96.5z M98.5,96.5H86.3V50.8h12.2V96.5z M92.1,44.6c-3.7,0-6.4-2.6-6.4-6.2c0-3.6,2.7-6.3,6.5-6.3c3.8,0,6.5,2.6,6.5,6.3
	C98.7,42.1,95.9,44.6,92.1,44.6z"/>
</svg>
