<?xml version="1.0" encoding="utf-8"?>
<!-- Generator: Adobe Illustrator 23.0.1, SVG Export Plug-In . SVG Version: 6.00 Build 0)  -->
<svg version="1.1" id="Layer_1" xmlns="http://www.w3.org/2000/svg" xmlns:xlink="http://www.w3.org/1999/xlink" x="0px" y="0px"
	 viewBox="0 0 128 128" style="enable-background:new 0 0 128 128;" xml:space="preserve">
<style type="text/css">
	.st0{fill:#1FE0C3;}
	.st1{fill:#006B61;}
</style>
<path class="st0" d="M0,0h128v128H0V0z"/>
<path class="st1" d="M117.5,97.5c-0.9-5.8-4.7-10.7-16-15.3c-3.9-1.8-8.3-3.1-9.6-6.1c-0.5-1.7-0.5-2.7-0.2-3.7
	c0.8-3.4,4.9-4.5,8.1-3.5c2.1,0.7,4,2.3,5.2,4.8c5.5-3.6,5.5-3.6,9.4-6c-1.4-2.2-2.2-3.2-3.1-4.1c-3.3-3.7-7.8-5.6-15.1-5.5
	l-3.8,0.5c-3.6,0.9-7.1,2.8-9.1,5.4c-6.1,6.9-4.3,18.9,3,23.9c7.3,5.5,17.9,6.7,19.3,11.8c1.3,6.2-4.6,8.3-10.5,7.5
	c-4.3-0.9-6.7-3.1-9.3-7.1c-4.8,2.8-4.8,2.8-9.7,5.6c1.2,2.6,2.4,3.7,4.4,5.9c9.3,9.4,32.5,8.9,36.6-5.3
	C117.3,105.8,118.4,102.5,117.5,97.5z M69.6,58.8h-12l0,31c0,6.6,0.3,12.6-0.7,14.5c-1.8,3.6-6.3,3.2-8.4,2.5
	c-2.1-1-3.2-2.5-4.4-4.6c-0.3-0.6-0.6-1.1-0.7-1.1l-9.7,6c1.6,3.3,4,6.2,7.1,8.1c4.6,2.7,10.7,3.6,17.1,2.1c4.2-1.2,7.8-3.7,9.7-7.6
	c2.7-5,2.1-11.1,2.1-17.8C69.6,80.8,69.6,69.8,69.6,58.8z"/>
</svg>
