<?xml version="1.0" encoding="utf-8"?>
<!-- Generator: Adobe Illustrator 23.0.1, SVG Export Plug-In . SVG Version: 6.00 Build 0)  -->
<svg version="1.0" id="Layer_1" xmlns="http://www.w3.org/2000/svg" xmlns:xlink="http://www.w3.org/1999/xlink" x="0px" y="0px"
	 viewBox="0 0 288 288" style="enable-background:new 0 0 288 288;" xml:space="preserve">
<style type="text/css">
	.st0{fill:#13CFBF;}
	.st1{fill:#32FFE5;}
	.st2{fill:#00DCB5;}
	.st3{fill:#1FE0C3;}
	.st4{fill:#00A99D;}
	.st5{fill:#13FFD7;}
	.st6{fill:#CEDBE6;}
	.st7{fill:#DEFFFA;}
	.st8{fill:#FFFFFF;}
</style>
<g>
	<polygon class="st0" points="144,144.1 143.9,288.1 268.6,216.1 	"/>
	<polygon class="st1" points="144,0.2 144,144.1 268.7,72.2 	"/>
	<polygon class="st2" points="19.3,72.2 19.3,216.2 144,144.1 	"/>
	<polygon class="st3" points="19.3,72.2 144,144.1 143.9,0.1 	"/>
	<polygon class="st4" points="144,144.1 268.6,216.1 268.7,72.2 	"/>
	<polygon class="st5" points="19.3,216.2 143.9,288.1 144,144.1 	"/>
	<polygon class="st6" points="143.9,144.3 143.9,232.2 220.4,188 220.2,100.2 	"/>
	<polygon class="st7" points="143.9,144.3 220.2,100.2 143.6,56.1 67.6,100 	"/>
	<polygon class="st8" points="143.9,144.3 67.6,100 67.6,188 143.9,232.2 	"/>
</g>
</svg>
