<?xml version="1.0" encoding="utf-8"?>
<!-- Generator: Adobe Illustrator 23.0.1, SVG Export Plug-In . SVG Version: 6.00 Build 0)  -->
<svg version="1.1" id="Layer_1" xmlns="http://www.w3.org/2000/svg" xmlns:xlink="http://www.w3.org/1999/xlink" x="0px" y="0px"
	 viewBox="0 0 128 128" style="enable-background:new 0 0 128 128;" xml:space="preserve">
<style type="text/css">
	.st0{fill:#1CBBAE;}
	.st1{fill:#08A297;}
	.st2{fill:#00A99D;}
	.st3{fill:#34CBB8;}
</style>
<path class="st0" d="M1.2,44.6c0,0-3.1-2.3,0.6-5.3l8.7-7.9c0,0,2.5-2.7,5.1-0.3l80.4,61.6v29.5c0,0,0,4.6-5.9,4.1L1.2,44.6z"/>
<path class="st1" d="M22,63.7L1.2,82.7c0,0-2.1,1.6,0,4.5l9.6,8.8c0,0,2.3,2.5,5.7-0.3l22-16.8L22,63.7z"/>
<path class="st2" d="M58.3,63.8l38-29.3L96.1,5.1c0,0-1.6-6.4-7-3.1L38.5,48.6L58.3,63.8z"/>
<path class="st3" d="M90.2,126.3c2.2,2.3,4.9,1.5,4.9,1.5l29.6-14.8c3.8-2.6,3.3-5.9,3.3-5.9V19.1c0-3.9-3.9-5.2-3.9-5.2L98.4,1.4
	C92.8-2.1,89.1,2,89.1,2s4.7-3.4,7,3.1v116.5c0,0.8-0.2,1.6-0.5,2.3c-0.7,1.4-2.1,2.7-5.7,2.1L90.2,126.3z"/>
</svg>
