<?xml version="1.0" standalone="no"?>
<!DOCTYPE svg PUBLIC "-//W3C//DTD SVG 20010904//EN"
 "http://www.w3.org/TR/2001/REC-SVG-20010904/DTD/svg10.dtd">
<svg version="1.0" xmlns="http://www.w3.org/2000/svg"
 width="1200.000000pt" height="1200.000000pt" viewBox="0 0 1200.000000 1200.000000"
 preserveAspectRatio="xMidYMid meet">
<metadata>
Created by potrace 1.14, written by Peter Selinger 2001-2017
</metadata>
<g transform="translate(0.000000,1200.000000) scale(0.100000,-0.100000)"
fill="#000000" stroke="none">
<path d="M4902 11630 c-25 -15 -331 -240 -564 -415 -37 -27 -113 -84 -170
-126 -57 -42 -173 -128 -258 -191 -85 -63 -218 -161 -295 -218 -337 -249 -798
-590 -827 -612 -9 -7 -78 -58 -153 -113 -125 -92 -276 -204 -300 -223 -5 -4
-32 -23 -60 -42 -27 -19 -52 -38 -55 -41 -5 -6 -226 -170 -583 -433 -126 -93
-234 -178 -242 -190 -20 -32 -18 -2787 2 -2866 32 -126 83 -190 239 -305 60
-44 114 -83 119 -87 6 -5 31 -25 58 -45 l47 -36 -22 -16 c-13 -8 -27 -19 -33
-23 -19 -16 -453 -338 -698 -517 -77 -57 -129 -103 -132 -115 -12 -61 -17
-127 -18 -283 -2 -136 -5 -169 -14 -161 -10 8 -13 6 -13 -6 0 -9 5 -16 11 -16
6 0 3 -8 -8 -17 -10 -10 -14 -15 -9 -11 16 13 29 9 23 -6 -3 -7 -1 -18 5 -24
6 -6 6 -12 -1 -16 -5 -4 -7 -14 -4 -23 5 -11 0 -10 -16 6 -12 12 -26 19 -31
16 -12 -7 -13 -26 -2 -24 19 3 32 -2 32 -12 0 -8 -4 -8 -14 0 -9 7 -17 8 -20
3 -7 -12 19 -23 38 -16 8 3 17 1 21 -5 3 -6 1 -11 -4 -11 -6 0 -10 -3 -9 -7 3
-15 -14 -43 -23 -37 -5 3 -10 2 -10 -3 -6 -35 -5 -52 2 -47 4 2 6 11 2 19 -6
18 8 20 26 2 11 -10 12 -8 7 10 -4 12 -3 24 1 26 5 3 8 -22 8 -56 -1 -45 -5
-61 -14 -59 -7 1 -11 -3 -8 -10 2 -7 10 -12 16 -10 7 1 10 -2 6 -8 -4 -6 -2
-17 5 -25 8 -9 8 -15 0 -20 -8 -5 -8 -11 1 -21 6 -8 9 -15 5 -15 -3 -1 -10 -2
-15 -3 -17 -2 -25 -16 -10 -17 8 -1 17 -1 20 -1 3 1 6 -6 6 -13 0 -11 -4 -12
-14 -3 -11 8 -12 7 -7 -6 3 -9 11 -16 18 -16 6 0 4 -5 -4 -10 -10 -7 -11 -10
-2 -10 8 0 11 -9 8 -25 -3 -15 0 -25 7 -25 8 0 8 -3 -1 -9 -19 -11 -19 -15 -3
-35 12 -14 11 -19 -5 -32 -15 -12 -15 -14 -3 -11 13 4 16 -1 14 -26 -2 -18 0
-36 3 -42 3 -5 7 -23 8 -40 2 -16 0 -24 -4 -18 -4 7 -13 8 -20 4 -9 -5 -4 -11
15 -20 22 -10 24 -14 12 -22 -7 -5 -10 -9 -5 -9 5 0 2 -8 -5 -17 -12 -15 -12
-16 4 -10 11 4 17 1 18 -8 1 -8 2 -19 3 -24 0 -5 13 -19 28 -30 15 -12 25 -28
22 -35 -3 -9 3 -13 19 -12 22 1 60 -24 126 -84 15 -14 32 -26 37 -27 5 -1 10
-11 12 -23 2 -11 8 -18 13 -14 5 3 7 11 3 17 -3 7 6 -1 20 -16 14 -15 26 -25
26 -21 0 5 32 -16 79 -52 2 -2 -2 -10 -9 -19 -8 -9 -8 -15 -2 -15 6 0 13 4 17
10 8 14 35 0 35 -18 0 -8 3 -13 6 -9 4 3 19 0 35 -8 20 -11 27 -20 22 -33 -3
-9 -3 -14 2 -10 10 10 67 -20 60 -32 -3 -5 -1 -11 5 -15 5 -3 10 -1 10 6 0 10
3 10 12 1 8 -8 8 -15 -1 -26 -9 -11 -10 -20 -1 -35 13 -25 19 -26 48 -5 20 14
24 14 52 -6 17 -12 30 -26 30 -32 0 -6 3 -8 7 -5 3 4 17 -9 31 -29 13 -19 26
-33 29 -30 3 3 2 11 -3 19 -5 7 -2 5 7 -5 9 -9 19 -14 23 -11 3 3 8 -2 12 -11
3 -9 10 -13 15 -10 5 3 12 -2 15 -10 3 -9 10 -13 15 -10 5 3 6 -3 2 -12 -4
-12 -3 -15 5 -10 8 5 10 1 5 -11 -5 -14 -3 -15 7 -6 9 8 20 6 46 -9 19 -11 37
-25 41 -32 4 -6 -1 -5 -10 3 -23 18 -29 11 -11 -13 10 -15 17 -16 27 -8 11 9
19 6 37 -13 13 -14 31 -25 39 -26 12 0 11 -3 -4 -9 -11 -5 -15 -9 -10 -10 35
-5 49 -10 54 -18 3 -5 15 -14 26 -21 l20 -13 -20 6 c-20 6 -20 6 0 -9 11 -9
21 -11 23 -6 2 7 8 7 15 1 7 -5 27 -22 45 -36 23 -19 30 -30 23 -37 -18 -18
-12 -31 7 -14 15 13 19 14 36 1 11 -8 15 -14 8 -14 -6 0 -9 -7 -5 -16 5 -15 7
-15 15 0 8 13 13 15 24 5 7 -6 11 -16 7 -22 -4 -6 0 -8 9 -4 21 8 30 -3 17
-20 -8 -9 -8 -13 -1 -13 6 0 14 5 18 11 4 8 16 1 34 -19 15 -17 29 -30 31 -29
2 1 1 -2 -3 -7 -16 -20 -7 -28 12 -11 11 10 21 15 21 12 1 -4 2 -12 3 -19 0
-6 9 -12 20 -14 17 -2 67 -40 74 -56 2 -5 9 -8 17 -8 7 0 18 -13 25 -30 7 -16
17 -27 22 -24 5 3 5 11 1 18 -4 7 -1 4 9 -6 9 -10 20 -18 25 -18 4 0 20 -11
34 -24 19 -16 26 -31 24 -50 -2 -17 1 -26 8 -23 7 2 11 11 9 21 -2 9 2 16 8
16 6 0 8 -5 4 -12 -5 -8 -2 -9 10 -5 9 4 15 3 12 -2 -3 -5 1 -12 10 -15 8 -3
12 -10 9 -16 -3 -5 -2 -10 4 -10 5 0 11 3 14 8 2 4 2 1 0 -6 -2 -9 3 -11 18
-7 14 5 20 3 18 -7 -3 -26 1 -39 11 -33 6 4 8 12 4 18 -3 7 3 2 14 -10 11 -12
22 -19 26 -16 6 6 10 -11 7 -33 -1 -6 6 -11 14 -11 10 0 14 6 10 16 -4 13 -2
13 8 -1 8 -10 18 -14 22 -10 5 4 5 2 1 -5 -4 -7 2 -17 14 -23 11 -6 20 -8 20
-4 0 4 8 -3 19 -14 10 -12 21 -18 25 -15 4 4 4 0 0 -10 -5 -13 -2 -16 10 -11
9 3 16 2 16 -4 0 -5 13 -8 30 -7 16 1 27 -1 24 -6 -3 -5 -10 -6 -16 -3 -6 4
-8 3 -5 -3 5 -8 -18 -10 -54 -4 -3 1 -11 11 -18 23 l-11 23 6 -22 c6 -25 -5
-30 -24 -11 -9 9 -12 9 -12 0 0 -7 6 -13 13 -14 6 0 17 -2 22 -2 6 -1 19 -8
30 -15 15 -9 16 -11 3 -7 -11 3 -18 0 -18 -7 0 -8 -3 -8 -9 2 -6 8 -14 10 -22
5 -19 -11 -79 -13 -79 -2 0 5 -4 7 -9 3 -6 -3 -14 3 -20 12 -6 10 -11 13 -11
6 0 -6 -8 -10 -17 -8 -11 1 -17 9 -15 21 3 16 2 16 -15 3 -16 -13 -17 -12 -5
3 8 10 9 19 3 22 -5 3 -11 1 -13 -6 -7 -20 -34 -17 -35 5 -1 11 -7 25 -13 31
-8 8 -10 7 -7 -4 2 -8 2 -12 0 -7 -3 4 -9 7 -14 7 -6 0 -7 -5 -3 -12 4 -7 3
-8 -5 -4 -6 4 -8 12 -5 18 4 7 2 8 -4 4 -7 -4 -12 -2 -12 4 0 7 7 10 18 6 14
-5 14 -4 -2 9 -17 13 -21 13 -33 -3 -12 -15 -13 -14 -3 7 7 13 8 21 2 17 -6
-4 -8 3 -5 16 4 14 2 20 -3 15 -5 -5 -10 -13 -10 -18 -1 -5 -2 -12 -3 -15 0
-4 -8 0 -18 7 -9 8 -19 13 -22 11 -3 -2 -7 2 -9 10 -2 8 -1 9 5 3 7 -10 16
-11 41 -6 22 4 -25 18 -49 14 -21 -3 -29 1 -34 17 -4 11 -11 17 -17 13 -11 -6
58 -73 76 -73 5 0 15 -8 22 -17 7 -10 16 -18 21 -18 9 0 17 -6 66 -49 17 -15
35 -22 44 -19 11 4 14 2 9 -5 -5 -8 -2 -10 9 -6 10 4 15 2 13 -7 -2 -7 7 -14
20 -15 12 -1 23 -3 25 -4 1 -1 16 -3 32 -5 17 -1 32 -4 35 -5 3 -1 9 -2 14 -1
5 1 27 4 49 6 22 3 45 10 53 16 8 6 14 9 14 6 0 -6 117 71 144 94 6 5 78 59
161 119 82 61 161 119 175 129 14 11 99 75 190 142 171 126 248 183 265 196 6
5 105 78 220 163 116 85 215 158 220 163 6 4 35 25 65 47 89 65 100 73 120 89
10 9 54 41 96 71 43 30 86 63 96 72 10 10 18 15 18 10 0 -4 4 -2 8 4 4 6 34
30 67 54 33 24 62 46 65 50 3 3 19 14 35 24 17 11 37 25 45 33 8 7 72 55 141
106 208 151 351 257 389 287 14 10 70 52 125 92 55 40 105 77 112 83 7 5 19
16 27 23 8 6 20 12 26 12 5 0 10 3 10 8 0 4 17 18 38 32 20 14 48 35 62 48 14
12 30 22 37 22 6 0 13 4 15 8 2 5 55 46 118 92 63 47 120 89 127 95 54 45 130
94 137 88 3 -3 6 -1 6 5 0 11 26 6 45 -10 6 -5 22 -18 38 -29 15 -11 24 -26
20 -32 -4 -6 0 -8 10 -4 10 4 16 2 14 -5 -1 -5 7 -12 17 -14 10 -1 23 -9 27
-16 5 -7 14 -13 21 -13 7 0 13 -5 13 -12 0 -6 3 -15 8 -19 4 -4 7 -1 7 7 0 11
2 11 10 -1 5 -8 10 -19 10 -25 0 -5 -4 -4 -9 3 -6 11 -10 10 -15 -4 -9 -23 0
-30 19 -14 8 7 15 10 15 6 0 -13 66 28 200 127 76 56 375 278 665 492 290 215
611 452 713 528 103 76 195 145 204 155 9 9 19 40 22 67 32 268 18 1166 -20
1297 -4 14 -559 437 -772 588 l-63 45 6 140 c4 77 8 176 10 220 4 84 12 253
20 445 3 63 8 158 10 210 5 112 13 277 20 445 3 66 7 158 10 205 3 47 7 148
10 225 3 77 7 174 10 215 12 211 19 398 19 512 1 125 1 127 -29 169 -16 23
-53 58 -82 78 -43 30 -680 497 -1058 776 -314 232 -307 227 -343 221 -33 -5
-66 -27 -420 -290 -90 -67 -166 -120 -170 -118 -4 2 -155 112 -336 244 -181
133 -339 242 -351 244 -13 1 -36 -6 -53 -16z m-3272 -8410 c0 -4 -7 -13 -16
-21 -13 -10 -17 -10 -24 1 -11 18 7 41 26 33 8 -3 14 -9 14 -13z"/>
<path d="M1596 3221 c-4 -5 -2 -12 3 -15 5 -4 12 -2 15 3 4 5 2 12 -3 15 -5 4
-12 2 -15 -3z"/>
<path d="M10361 5826 c-49 -8 -83 -32 -419 -283 -202 -150 -378 -282 -392
-293 -14 -10 -34 -26 -45 -34 -15 -11 -20 -26 -20 -70 -1 -59 2 -64 24 -43 9
8 12 8 7 0 -3 -6 0 -14 6 -16 10 -4 9 -8 -2 -16 -8 -6 -13 -11 -10 -12 3 0 13
-2 23 -4 13 -2 17 1 13 11 -4 12 -2 12 14 4 11 -6 19 -15 17 -21 -1 -6 6 -13
15 -14 18 -3 76 -45 77 -56 1 -3 -6 -14 -15 -25 -14 -18 -15 -18 -4 6 11 24
11 24 -6 5 -13 -15 -15 -16 -11 -3 4 12 1 16 -13 13 -11 -2 -23 1 -26 7 -4 6
-3 8 3 5 6 -4 16 0 23 8 15 18 7 19 -22 4 -16 -9 -19 -8 -13 2 6 8 4 10 -5 4
-8 -5 -11 -4 -7 2 4 6 -1 10 -11 9 -9 0 -16 5 -14 12 1 8 -2 11 -9 6 -7 -4 -9
-3 -5 4 4 7 -1 10 -13 7 -16 -3 -19 1 -15 23 3 21 2 23 -6 12 -15 -22 -12 -40
8 -47 9 -4 22 -12 28 -17 21 -21 64 -51 72 -50 4 1 12 -6 19 -15 6 -9 16 -17
22 -17 6 -1 15 -2 21 -3 5 0 9 -7 7 -13 -1 -7 4 -12 11 -11 6 2 12 -2 12 -7 0
-6 6 -10 14 -10 8 0 17 -7 20 -16 3 -8 10 -12 16 -9 6 3 13 -1 16 -9 3 -9 10
-13 15 -10 5 3 9 0 9 -5 0 -6 4 -11 8 -11 5 0 9 7 9 15 0 8 -5 11 -10 8 -6 -3
-7 -1 -3 5 5 8 2 10 -8 6 -14 -6 -21 5 -17 29 0 4 -4 7 -9 7 -6 0 -10 -8 -10
-17 -1 -14 -4 -12 -15 7 -7 14 -17 25 -22 25 -4 0 -7 4 -5 8 1 5 -3 5 -9 1 -8
-4 -9 -3 -5 5 4 6 4 10 -1 9 -4 -2 -9 0 -11 5 -5 16 -2 27 9 27 5 0 7 -5 3
-12 -5 -7 -2 -9 9 -5 12 4 14 2 10 -10 -4 -10 -2 -14 5 -9 6 3 13 2 17 -4 4
-6 11 -7 17 -4 6 4 8 3 5 -3 -4 -6 5 -15 18 -21 14 -7 25 -17 25 -24 0 -9 3
-8 10 2 7 10 8 2 5 -27 -3 -32 0 -43 13 -49 9 -4 21 -6 25 -5 4 0 10 -6 13
-14 5 -12 9 -13 20 -4 8 6 14 16 14 21 0 6 -8 4 -17 -3 -14 -12 -16 -12 -8 0
6 10 4 12 -5 6 -9 -6 -11 -4 -5 5 5 9 4 11 -3 6 -7 -4 -12 -2 -12 4 0 7 -7 10
-15 6 -12 -4 -13 -2 -6 13 6 10 7 22 3 27 -4 5 1 2 10 -5 10 -7 15 -18 11 -24
-4 -6 0 -8 10 -4 10 4 16 2 14 -5 -1 -7 4 -13 11 -14 6 -1 17 -2 23 -3 5 0 7
-5 4 -11 -3 -5 1 -10 9 -10 9 0 16 -5 16 -11 0 -5 5 -7 10 -4 6 3 13 -1 16 -9
3 -9 10 -13 15 -10 5 3 12 -2 15 -10 3 -9 10 -14 15 -11 4 3 13 -4 19 -15 6
-11 16 -19 22 -17 7 1 12 -4 13 -12 0 -8 8 -15 18 -17 38 -5 64 -44 28 -41
-16 1 -18 4 -8 16 10 12 9 14 -5 8 -10 -3 -20 -2 -23 4 -4 5 -11 6 -17 3 -7
-4 -8 -2 -4 4 5 8 1 10 -11 6 -15 -6 -15 -4 2 10 13 10 15 14 4 11 -10 -4 -20
3 -27 17 -6 13 -11 17 -11 11 -1 -7 -5 -13 -11 -13 -5 0 -9 3 -9 8 3 20 -2 33
-11 27 -6 -4 -7 -11 -4 -17 4 -7 2 -8 -5 -4 -6 4 -9 12 -5 17 3 6 -2 9 -12 7
-11 -2 -18 2 -17 9 2 8 -4 10 -15 7 -13 -4 -14 -3 -4 4 11 7 11 10 -1 15 -9 3
-18 0 -21 -8 -3 -8 3 -17 15 -20 10 -4 19 -11 19 -16 0 -5 7 -9 15 -9 8 0 15
-4 15 -10 0 -5 7 -10 15 -10 8 0 15 -5 15 -11 0 -6 7 -8 16 -5 8 3 13 2 9 -3
-3 -5 8 -19 25 -31 16 -12 30 -18 30 -14 0 4 6 0 13 -10 17 -23 71 -31 63 -10
-3 8 17 -3 44 -23 28 -21 50 -41 50 -46 0 -4 5 -5 12 -1 7 4 8 3 4 -4 -4 -7
-2 -13 3 -13 23 -3 27 -5 54 -29 16 -14 33 -25 38 -25 5 0 9 -3 9 -7 0 -5 0
-11 0 -15 0 -3 -9 2 -20 12 -12 11 -20 13 -20 6 0 -6 7 -14 15 -17 8 -4 12
-11 9 -16 -4 -6 0 -7 12 -1 30 15 47 10 51 -16 l3 -24 -18 23 c-13 16 -21 20
-26 12 -4 -7 -1 -12 7 -12 8 0 18 -7 21 -16 3 -8 10 -13 14 -10 5 3 15 -3 24
-12 18 -20 53 -45 64 -45 5 -1 19 -12 32 -24 20 -20 42 -24 42 -7 0 3 -5 2
-12 -2 -7 -5 -8 -3 -3 6 5 8 4 11 -2 7 -6 -4 -16 0 -23 8 -9 10 -9 15 -1 15 6
0 11 -5 11 -12 0 -6 3 -8 7 -5 10 10 32 -13 27 -27 -7 -19 63 -69 87 -63 16 4
18 3 9 -8 -8 -10 -8 -15 1 -21 7 -4 9 -3 6 3 -4 6 0 14 9 17 8 3 12 2 9 -4 -3
-5 -1 -18 5 -27 10 -16 11 -16 6 -1 -3 12 -1 15 10 11 8 -3 13 -12 10 -19 -3
-8 -1 -14 4 -14 6 0 10 4 10 8 0 5 6 9 13 9 6 0 134 92 284 204 149 112 282
212 295 221 12 9 73 55 133 100 l110 84 3 63 c2 43 -3 80 -15 113 -17 49 -26
56 -268 234 -137 102 -257 190 -265 197 -9 7 -38 28 -65 47 -27 19 -56 40 -65
47 -8 7 -53 41 -100 75 -47 35 -144 107 -216 160 -72 53 -140 96 -150 95 -11
-1 -43 -6 -73 -11z m88 -1409 c6 -8 7 -18 3 -22 -4 -5 1 -5 10 -2 11 4 17 2
15 -5 -2 -11 2 -13 36 -17 9 -1 8 -4 -2 -10 -16 -10 -85 35 -76 49 3 5 -1 11
-7 13 -8 4 -9 6 -2 6 6 1 17 -5 23 -12z m185 -147 c20 1 26 -1 26 -9 0 -15
-32 -6 -46 14 -8 10 -14 15 -14 11 0 -4 -5 -4 -10 -1 -6 4 -7 11 -4 17 5 7 14
3 25 -11 10 -12 20 -22 23 -21z"/>
<path d="M8529 5332 c-25 -17 -472 -347 -769 -568 -136 -101 -1269 -940 -1335
-988 -11 -8 -76 -57 -145 -108 -69 -51 -210 -156 -315 -233 -104 -77 -197
-145 -205 -152 -8 -7 -62 -47 -120 -89 -58 -43 -184 -136 -280 -207 -96 -71
-203 -150 -238 -176 -35 -25 -69 -51 -75 -56 -7 -6 -95 -72 -197 -147 -102
-75 -219 -161 -260 -192 -41 -30 -84 -62 -95 -70 -23 -17 -198 -147 -234 -173
-13 -10 -114 -85 -225 -167 -111 -82 -202 -150 -203 -151 -2 -1 -4 -34 -5 -73
-2 -40 -7 -72 -11 -72 -5 0 -5 -6 0 -12 10 -17 11 -58 1 -52 -4 3 -8 0 -8 -5
0 -6 5 -11 11 -11 6 0 8 -7 5 -16 -5 -13 -4 -14 7 -6 10 9 14 8 14 -3 0 -7 -3
-14 -6 -13 -3 0 -12 0 -20 -1 -21 -2 -5 -14 23 -17 20 -2 24 1 21 19 -4 19 -1
18 24 -10 16 -17 32 -29 36 -25 3 4 3 -2 -1 -13 -7 -18 -6 -18 9 -6 9 7 18 11
18 7 1 -3 3 -10 4 -16 1 -5 3 -13 4 -17 1 -5 6 -1 12 7 9 13 10 13 6 0 -2 -8
-10 -14 -16 -13 -6 2 -11 -2 -11 -7 0 -6 5 -10 11 -10 6 0 8 -9 4 -22 -7 -23
-7 -23 8 -3 8 11 13 23 11 27 -11 17 16 16 29 -2 7 -11 17 -17 20 -14 4 4 9
-1 13 -10 3 -9 11 -13 18 -9 6 4 4 -2 -4 -12 -14 -17 -13 -18 2 -13 9 4 19 4
23 0 4 -4 10 -7 13 -7 4 0 17 -7 29 -16 l23 -16 -25 -11 c-14 -6 -25 -17 -25
-24 0 -9 3 -9 10 2 5 8 12 11 17 7 4 -5 1 -12 -6 -16 -8 -5 -9 -11 -3 -15 10
-6 25 21 18 33 -3 4 5 8 17 8 17 2 18 0 7 -7 -8 -5 -11 -12 -7 -16 3 -4 13 -1
21 5 12 10 18 8 31 -13 10 -14 22 -23 28 -19 6 3 7 1 3 -5 -4 -7 -1 -12 8 -12
9 0 16 -5 16 -11 0 -5 5 -7 11 -4 6 4 13 -2 16 -14 3 -11 8 -19 12 -17 3 2 15
0 26 -5 13 -5 15 -8 5 -8 -8 -1 -21 -10 -28 -21 -13 -22 -3 -27 16 -8 6 6 19
13 27 14 17 2 39 -31 30 -46 -3 -5 -1 -11 5 -15 10 -6 15 9 10 30 -1 6 10 -1
24 -15 15 -13 24 -30 22 -36 -6 -16 19 -25 32 -12 6 6 14 3 24 -11 8 -12 18
-18 22 -13 4 4 6 1 4 -7 -2 -7 5 -15 15 -16 26 -5 49 -26 43 -42 -3 -7 -1 -13
4 -13 6 0 10 6 10 13 1 7 6 5 14 -5 7 -10 18 -18 24 -18 6 0 17 -9 25 -20 8
-11 17 -17 21 -13 4 4 4 -1 0 -12 -7 -18 -6 -19 10 -6 15 12 17 12 14 0 -2 -8
3 -13 10 -11 8 1 11 -2 7 -8 -3 -5 -1 -11 4 -11 6 -1 14 -2 19 -3 19 -3 81
-59 75 -69 -4 -6 0 -8 10 -4 10 4 16 2 14 -6 -1 -7 4 -11 12 -9 7 2 20 -6 28
-18 8 -11 18 -18 23 -15 5 3 15 -3 22 -13 7 -10 22 -24 33 -30 11 -6 14 -12 8
-12 -7 0 -13 -5 -13 -12 0 -6 3 -8 7 -5 3 4 13 1 21 -6 13 -10 15 -9 8 8 -6
17 -4 17 18 -4 14 -13 23 -29 19 -34 -4 -6 0 -8 10 -4 9 3 18 0 21 -9 3 -9 10
-13 15 -10 5 3 15 -2 22 -11 13 -15 11 -16 -11 -10 -24 6 -24 5 -6 -8 13 -10
23 -11 31 -5 16 13 35 -9 30 -35 -2 -11 -4 -23 -4 -27 -1 -5 -6 -8 -12 -8 -5
0 -8 4 -4 9 3 5 0 13 -6 17 -8 5 -10 2 -5 -7 4 -8 -2 -3 -14 11 -12 14 -18 19
-14 11 4 -9 3 -12 -4 -7 -6 4 -9 14 -6 24 5 14 2 13 -12 -3 -14 -17 -16 -17
-11 -3 7 19 -8 25 -18 8 -9 -14 36 -49 54 -42 9 3 12 1 7 -6 -4 -7 -1 -12 7
-12 8 0 18 -7 21 -16 4 -9 9 -14 12 -11 4 3 14 -2 23 -12 9 -11 28 -27 43 -36
26 -16 28 -16 34 0 4 9 2 21 -4 27 -9 9 -10 6 -7 -10 3 -15 0 -19 -12 -15 -11
4 -12 8 -3 13 9 5 6 10 -9 15 -13 4 -20 9 -17 12 7 7 -13 33 -25 33 -5 0 -2
-12 7 -27 l16 -28 -20 24 c-15 19 -18 30 -10 46 13 30 36 27 61 -6 11 -16 24
-26 29 -23 4 3 11 -2 14 -10 3 -9 11 -13 17 -9 6 3 7 1 3 -5 -5 -9 -13 -9 -29
-1 -19 9 -20 8 -6 -3 21 -17 24 -29 8 -39 -16 -10 -11 -16 16 -21 11 -1 23 -7
26 -11 3 -4 15 -9 27 -10 12 0 24 -7 26 -14 3 -7 12 -10 22 -6 13 5 15 3 9 -8
-4 -8 -5 -11 0 -7 4 4 14 3 21 -3 8 -7 14 -6 20 2 5 8 3 9 -6 4 -9 -6 -11 -4
-5 5 6 9 4 11 -5 5 -8 -5 -11 -4 -7 2 10 16 -18 24 -32 10 -7 -7 -12 -7 -11
-2 2 6 2 16 1 24 -1 11 -4 11 -18 0 -9 -8 -14 -9 -10 -3 4 7 0 11 -11 10 -9 0
-16 4 -15 11 2 6 -5 10 -16 8 -21 -4 -24 22 -3 30 22 8 45 -14 31 -31 -8 -10
-8 -14 -1 -14 6 0 13 4 17 10 8 13 35 1 35 -17 0 -8 4 -12 9 -9 9 6 75 -42
104 -77 10 -12 16 -16 12 -9 -3 7 10 1 30 -12 l36 -25 218 162 c121 89 365
270 542 402 550 407 700 518 824 611 66 49 130 96 142 104 12 8 163 120 335
247 172 128 450 334 618 459 168 124 316 234 330 244 14 11 161 119 327 242
652 482 1376 1019 1385 1027 6 5 -92 296 -103 305 -2 2 -110 82 -239 178 -201
149 -753 560 -830 618 -36 27 -480 357 -511 380 -24 18 -27 18 -50 2z"/>
<path d="M9460 5099 c0 -5 -4 -8 -9 -4 -5 3 -13 0 -17 -7 -4 -7 -4 -10 1 -6 4
4 16 -1 25 -12 15 -17 19 -18 23 -6 4 9 2 18 -4 21 -5 4 -7 11 -4 16 4 5 1 9
-4 9 -6 0 -11 -5 -11 -11z"/>
<path d="M9559 5058 c-6 -21 -5 -38 1 -38 5 0 8 9 7 20 -1 17 -5 26 -8 18z"/>
<path d="M9590 5020 c0 -5 5 -10 11 -10 5 0 7 5 4 10 -3 6 -8 10 -11 10 -2 0
-4 -4 -4 -10z"/>
<path d="M9626 4992 c-3 -5 1 -9 9 -9 8 0 12 4 9 9 -3 4 -7 8 -9 8 -2 0 -6 -4
-9 -8z"/>
<path d="M9714 4918 c-4 -7 -4 -10 1 -6 4 4 15 2 24 -5 14 -11 14 -10 2 6 -16
20 -18 21 -27 5z"/>
<path d="M9775 4880 c3 -5 8 -10 11 -10 2 0 4 5 4 10 0 6 -5 10 -11 10 -5 0
-7 -4 -4 -10z"/>
<path d="M10130 4599 c0 -4 9 -11 20 -14 11 -3 26 -12 32 -18 47 -45 80 -65
95 -60 10 4 14 2 10 -4 -4 -6 -1 -16 7 -22 10 -9 15 -8 19 3 4 10 1 13 -9 9
-8 -3 -14 -2 -13 3 4 23 -3 33 -21 29 -11 -2 -20 0 -20 4 0 14 -62 71 -72 65
-4 -3 -8 -1 -8 5 0 5 -9 9 -20 8 -11 -1 -20 -4 -20 -8z m86 -41 l29 -33 -32
29 c-31 28 -38 36 -30 36 2 0 16 -15 33 -32z"/>
<path d="M6405 4570 c-7 -12 33 -40 56 -40 5 0 8 -4 5 -9 -3 -5 5 -16 18 -24
13 -9 31 -23 40 -32 9 -9 16 -14 16 -11 0 4 14 -6 31 -21 17 -16 35 -27 40
-25 5 1 9 -4 9 -10 0 -7 5 -5 11 5 7 13 7 22 0 31 -6 7 -10 15 -8 17 1 2 0 3
-2 1 -3 -1 -15 8 -28 20 -16 15 -23 17 -23 7 -1 -10 -4 -9 -11 4 -6 9 -14 15
-20 12 -5 -4 -10 -1 -10 4 -1 6 -2 16 -3 22 -1 14 -37 40 -46 34 -5 -3 -10 2
-14 10 -5 14 -53 18 -61 5z m52 -16 c0 -7 -6 -10 -14 -7 -7 3 -13 8 -13 12 0
4 6 8 13 8 8 0 14 -6 14 -13z m36 -32 c-6 -15 -4 -15 9 -4 14 11 16 11 14 0
-2 -14 -14 -18 -33 -11 -9 4 -10 15 -4 41 1 2 5 1 11 -3 5 -3 6 -13 3 -23z
m61 -48 c3 -8 11 -11 19 -8 17 6 48 -28 39 -43 -5 -7 -22 2 -49 26 -23 21 -36
38 -28 38 8 0 16 -6 19 -13z"/>
<path d="M6582 4444 c10 -10 20 -15 24 -12 3 4 -5 12 -18 18 -22 12 -22 12 -6
-6z"/>
<path d="M901 4551 c-7 -12 -16 -19 -21 -16 -4 3 -19 -7 -32 -22 -13 -16 -31
-29 -39 -31 -22 -5 -49 -34 -42 -45 4 -6 0 -8 -9 -4 -10 3 -30 -8 -52 -29 -20
-19 -38 -34 -41 -34 -3 1 -13 -4 -23 -9 -9 -6 -12 -11 -4 -11 6 0 12 -4 12 -9
0 -6 -9 -8 -19 -6 -11 2 -22 -3 -25 -11 -3 -9 -10 -12 -16 -9 -6 3 -13 -1 -16
-9 -3 -9 -10 -16 -15 -16 -6 0 -27 -17 -49 -39 l-39 -39 29 2 c17 0 30 4 30 9
0 4 4 6 9 3 4 -3 7 6 5 19 -2 26 23 48 48 42 7 -2 10 -2 5 0 -4 3 -4 9 -1 14
3 6 11 3 18 -6 11 -16 13 -15 27 1 12 16 12 17 -3 11 -10 -3 -20 -1 -24 5 -4
7 -3 8 4 4 7 -4 12 -2 12 3 0 6 3 10 8 10 4 -1 10 0 15 1 9 3 25 7 34 9 4 0
-2 8 -13 16 -13 11 -14 14 -4 13 8 -2 19 -7 23 -13 5 -6 6 -2 3 8 -4 12 -2 16
6 11 7 -5 8 -3 3 6 -6 9 -4 11 5 5 9 -6 11 -4 5 6 -5 8 -5 11 0 7 4 -4 14 -3
22 3 10 9 13 8 13 -2 1 -8 6 -4 13 8 7 12 17 23 22 25 6 2 9 6 7 11 -1 4 2 7
7 7 13 0 22 -28 10 -35 -5 -4 -6 -11 -3 -17 4 -7 10 -5 16 6 5 9 6 21 3 26
-11 18 -14 51 -4 45 5 -4 6 -11 3 -17 -4 -6 -1 -9 7 -6 8 3 14 11 15 19 2 35
5 40 15 33 8 -4 7 -9 -2 -15 -10 -6 -11 -11 -3 -16 12 -9 15 -43 3 -43 -4 0
-9 5 -11 12 -3 9 -6 9 -12 0 -4 -7 -2 -12 5 -12 8 0 8 -4 1 -13 -8 -10 -6 -13
11 -14 18 -2 19 0 7 8 -12 9 -11 9 5 4 11 -4 25 -8 32 -8 7 0 10 -4 7 -9 -3
-4 3 -5 13 -2 15 5 15 4 3 -4 -10 -8 -18 -8 -27 0 -8 6 -16 9 -18 6 -12 -12
24 -29 41 -20 27 15 26 39 -2 36 -13 -1 -24 1 -25 4 0 4 -2 16 -4 27 -5 23 13
47 27 39 7 -4 7 0 0 12 -8 14 -7 23 3 34 9 10 11 21 6 29 -7 11 -11 9 -20 -8z
m19 -5 c0 -2 -8 -10 -17 -17 -16 -13 -17 -12 -4 4 13 16 21 21 21 13z m-43
-23 c-4 -3 0 -11 9 -18 14 -10 14 -12 0 -24 -11 -9 -16 -10 -16 -2 0 6 6 11
13 11 6 0 4 5 -6 11 -15 9 -16 29 0 29 4 0 3 -3 0 -7z m-80 -64 c-9 -6 -14
-15 -11 -21 4 -7 2 -8 -5 -4 -14 9 3 36 23 36 6 0 3 -5 -7 -11z m-41 -41 c4
-7 4 -10 -1 -6 -4 4 -15 2 -24 -5 -14 -11 -14 -10 -2 6 16 20 18 21 27 5z
m-222 -172 c-3 -8 -13 -17 -22 -21 -13 -5 -13 -2 3 15 21 24 26 25 19 6z"/>
<path d="M927 4513 c-8 -13 9 -48 16 -36 4 7 3 14 -3 18 -6 4 -8 11 -5 16 4 5
4 9 1 9 -3 0 -7 -3 -9 -7z"/>
<path d="M780 4408 c-13 -13 -31 -23 -39 -23 -7 0 -29 -22 -47 -49 -19 -26
-34 -45 -34 -41 0 5 -8 1 -17 -7 -10 -8 -29 -14 -43 -13 -14 1 -32 -2 -40 -7
-12 -8 -11 -8 3 -4 10 3 15 2 12 -4 -3 -5 4 -8 15 -7 11 1 20 6 20 12 1 5 8
-1 16 -15 8 -14 13 -17 10 -7 -3 10 1 25 9 34 14 14 15 12 10 -18 -5 -34 -5
-34 9 -9 8 14 12 28 10 32 -3 5 0 8 5 8 6 0 10 3 10 8 -1 4 -1 13 0 21 1 11 4
11 17 0 15 -12 16 -11 10 9 -5 14 -3 22 4 22 6 0 8 6 5 13 -4 6 3 1 14 -12 23
-25 27 -21 10 10 -10 19 -9 19 10 10 17 -9 19 -9 15 3 -3 8 0 17 7 22 8 5 11
2 7 -8 -5 -11 0 -14 17 -12 18 2 22 -2 17 -14 -5 -15 -4 -15 11 -3 9 7 14 18
10 25 -3 6 2 3 12 -6 16 -15 16 -19 4 -34 -12 -16 -12 -17 3 -11 10 3 20 1 24
-5 4 -6 3 -8 -4 -4 -6 4 -10 -1 -9 -13 0 -11 5 -17 9 -15 4 3 5 -3 1 -13 -3
-10 -3 -15 2 -11 4 4 8 26 9 48 2 33 -3 45 -22 61 -18 13 -29 16 -42 9 -23
-12 -46 10 -28 28 22 22 2 12 -22 -10z"/>
<path d="M785 4360 c-4 -6 -11 -7 -17 -4 -7 4 -8 2 -4 -4 4 -7 5 -16 1 -22 -8
-13 -36 0 -28 14 3 6 2 7 -3 3 -5 -5 -9 -16 -9 -25 0 -10 -7 -16 -16 -14 -15
2 -19 -8 -20 -51 0 -9 -4 -15 -9 -12 -4 3 -10 -1 -13 -9 -6 -15 -34 -16 -45 0
-4 5 -22 10 -40 11 -25 1 -32 -3 -28 -13 6 -17 -8 -26 -46 -29 -17 -2 -36 -9
-43 -16 -22 -23 -42 -101 -40 -154 4 -65 3 -65 14 -65 10 0 9 19 -2 38 -5 7
-3 12 5 12 10 0 9 3 -2 11 -12 9 -11 10 5 5 20 -6 20 -6 1 9 -12 9 -15 15 -7
15 11 0 11 3 1 15 -7 8 -8 15 -3 15 6 0 10 8 10 18 0 35 3 43 15 36 6 -4 8 -3
4 4 -3 6 -1 14 5 18 8 5 9 3 4 -6 -5 -9 -4 -11 4 -6 9 6 9 11 0 22 -7 8 -7 14
-1 14 5 0 12 -7 16 -15 3 -8 12 -12 21 -9 8 3 12 10 9 15 -3 5 -9 7 -14 4 -5
-3 -11 -1 -14 3 -7 11 34 9 52 -2 21 -13 36 8 23 33 -10 17 -9 20 4 15 8 -3
13 -9 11 -13 -3 -4 -1 -13 3 -20 6 -9 11 -10 15 -2 4 6 3 11 -2 11 -5 0 -9 7
-9 15 0 21 4 19 22 -12 10 -17 14 -20 11 -8 -5 17 -3 16 15 -5 18 -23 19 -23
9 -2 -15 31 -4 28 13 -4 9 -17 17 -23 21 -15 4 6 3 11 -1 11 -5 0 -9 9 -10 19
-2 21 23 36 32 21 4 -6 11 -10 17 -10 6 0 5 6 -3 16 -7 9 -14 26 -15 37 -2 12
0 16 2 10 3 -7 10 -13 15 -13 6 0 8 4 5 8 -2 4 0 14 6 22 8 12 9 12 4 -3 -3
-11 -2 -16 4 -12 6 3 10 1 10 -4 0 -6 3 -10 8 -10 4 1 14 1 22 0 12 -1 11 -5
-4 -16 -25 -19 -8 -43 19 -27 11 5 13 12 7 16 -6 4 0 18 16 36 22 24 28 27 35
15 4 -8 5 -20 1 -27 -5 -7 -3 -8 6 -3 8 5 11 4 6 -3 -4 -7 1 -10 14 -7 13 3
18 0 14 -7 -5 -7 -2 -8 7 -3 11 6 12 5 2 -6 -14 -14 -17 -30 -5 -28 21 4 30
-3 27 -18 -1 -10 -9 -17 -16 -15 -8 1 -5 -4 5 -13 13 -10 15 -15 6 -15 -7 0
-10 -3 -7 -6 4 -4 13 -2 20 4 8 7 18 8 23 4 4 -4 3 0 -4 9 -9 12 -9 18 0 27 8
8 7 13 -5 18 -9 3 -15 10 -12 14 3 4 -2 13 -10 20 -20 17 -19 30 3 25 13 -2
18 3 18 21 0 13 -4 24 -9 24 -4 0 -6 4 -2 9 3 5 1 13 -5 16 -6 4 -9 3 -8 -2 1
-4 -6 -23 -16 -42 -18 -33 -35 -32 -40 2 -1 8 -8 22 -14 30 -9 10 -10 17 -2
22 5 3 10 11 10 16 0 6 -8 3 -17 -6 -15 -16 -18 -16 -28 -1 -14 19 -21 20 -30
6z m38 -25 c18 -13 18 -14 0 -39 -20 -29 -40 -29 -35 0 3 15 1 17 -9 7 -17
-17 -26 -16 -33 3 -3 8 -2 13 3 10 4 -3 16 3 26 14 21 23 24 24 48 5z m107
-55 c0 -5 -2 -10 -4 -10 -3 0 -8 5 -11 10 -3 6 -1 10 4 10 6 0 11 -4 11 -10z
m-140 -40 c0 -5 -5 -10 -11 -10 -5 0 -7 5 -4 10 3 6 8 10 11 10 2 0 4 -4 4
-10z m-220 -40 c0 -5 -2 -10 -4 -10 -3 0 -8 5 -11 10 -3 6 -1 10 4 10 6 0 11
-4 11 -10z"/>
<path d="M774 4318 c-13 -16 -14 -19 -2 -10 18 15 34 0 22 -20 -4 -7 2 -4 13
7 14 14 18 24 11 33 -14 17 -22 15 -44 -10z m36 2 c0 -5 -2 -10 -4 -10 -3 0
-8 5 -11 10 -3 6 -1 10 4 10 6 0 11 -4 11 -10z"/>
<path d="M655 4320 c-3 -5 -1 -10 4 -10 6 0 11 5 11 10 0 6 -2 10 -4 10 -3 0
-8 -4 -11 -10z"/>
<path d="M824 4273 c-8 -18 -11 -29 -13 -50 0 -6 -12 -10 -26 -9 -14 2 -22 -1
-18 -7 3 -6 1 -7 -5 -3 -7 4 -12 0 -12 -10 0 -10 3 -14 7 -11 3 4 13 1 20 -5
12 -9 14 -9 11 3 -1 7 2 14 7 14 6 0 9 -3 8 -7 -2 -4 3 -5 11 -2 8 3 12 19 11
40 -1 22 4 38 12 41 15 6 18 23 4 23 -5 0 -12 -8 -17 -17z"/>
<path d="M723 4263 c-10 -3 -9 -9 3 -20 20 -20 2 -42 -19 -25 -18 15 -29 4
-18 -17 6 -11 4 -23 -5 -36 -19 -25 -18 -34 4 -30 9 2 19 4 22 4 3 1 -2 6 -10
11 -13 9 -13 11 0 19 8 5 18 7 22 5 7 -5 10 4 7 23 0 3 6 10 15 15 13 7 14 13
5 30 -7 13 -7 18 -1 14 6 -3 13 -3 16 2 5 9 -22 12 -41 5z m-15 -68 c-3 -3 -9
2 -12 12 -6 14 -5 15 5 6 7 -7 10 -15 7 -18z"/>
<path d="M834 4241 c0 -11 4 -17 8 -15 4 3 8 0 8 -5 0 -6 -4 -11 -10 -11 -5 0
-9 -3 -9 -7 3 -18 -2 -36 -7 -30 -4 3 -15 2 -25 -3 -11 -6 -20 -6 -23 -1 -5 8
-27 8 -46 1 -3 -1 -8 -2 -12 -1 -5 0 -8 -4 -8 -10 0 -6 7 -8 16 -5 8 3 13 2 9
-3 -6 -11 36 -8 54 4 10 6 11 3 1 -16 -10 -19 -10 -22 0 -12 7 6 20 9 29 5 14
-5 14 -4 2 11 -8 10 -11 20 -7 24 3 3 6 0 6 -8 0 -12 2 -12 10 1 5 8 12 11 17
7 4 -5 1 -12 -6 -16 -8 -5 -9 -11 -3 -15 12 -7 24 21 16 37 -3 7 1 4 10 -7 8
-10 19 -16 24 -12 5 3 9 -1 9 -8 0 -9 -7 -12 -16 -8 -14 5 -14 4 -2 -12 8 -9
17 -13 20 -8 3 6 12 4 19 -4 7 -8 8 -14 3 -14 -6 0 -15 -10 -22 -21 -8 -15 -8
-19 0 -15 10 6 15 -6 12 -26 0 -5 4 -8 10 -8 5 0 8 -4 4 -9 -3 -6 3 -14 12
-20 13 -8 14 -10 4 -11 -12 0 -12 -3 -3 -12 7 -7 12 -17 12 -23 0 -5 -4 -4 -9
3 -7 11 -9 10 -14 -3 -5 -10 -3 -14 5 -9 7 5 8 3 4 -5 -5 -7 0 -21 11 -33 10
-12 12 -18 6 -14 -9 5 -11 2 -7 -8 4 -10 0 -14 -15 -13 -12 1 -21 5 -21 10 0
4 -5 5 -11 1 -8 -4 -3 -11 12 -20 13 -7 27 -10 30 -8 4 2 12 -2 18 -10 9 -10
8 -15 -3 -19 -11 -4 -13 -1 -9 11 6 15 5 15 -11 3 -23 -19 -5 -37 22 -22 20
11 23 26 10 47 -4 6 -6 20 -3 32 2 12 -3 23 -12 26 -14 6 -14 8 1 25 9 9 13
21 9 25 -5 4 -8 26 -8 49 0 35 -3 42 -19 42 -11 0 -21 6 -24 13 -2 6 1 12 8
12 6 0 8 -4 5 -10 -4 -6 1 -7 11 -3 11 4 13 8 6 11 -7 2 -10 7 -7 12 3 5 -3
16 -12 26 -10 10 -18 21 -18 25 0 5 -9 15 -20 23 -19 14 -19 15 7 12 18 -2 25
1 21 10 -3 7 -10 12 -16 11 -7 -1 -12 7 -12 18 0 11 -5 20 -12 20 -6 0 -15 3
-19 8 -13 12 -20 8 -20 -12z m40 -13 c-3 -5 0 -17 7 -26 7 -9 10 -14 5 -10 -5
4 -17 3 -28 -3 -18 -10 -18 -8 -8 10 6 12 9 25 6 30 -3 4 1 8 9 8 8 0 12 -4 9
-9z m-104 -70 c0 -4 -4 -8 -9 -8 -6 0 -12 4 -15 8 -3 5 1 9 9 9 8 0 15 -4 15
-9z m177 -113 c0 -8 -4 -15 -9 -15 -10 0 -11 14 -1 23 9 10 10 9 10 -8z"/>
<path d="M531 4184 c3 -18 -1 -37 -8 -31 -3 4 -12 -1 -20 -11 -14 -16 -14 -16
-9 1 5 17 5 17 -17 0 -17 -12 -23 -27 -23 -54 1 -21 4 -41 8 -45 4 -4 3 -14
-4 -21 -9 -11 -9 -17 3 -24 10 -6 10 -9 2 -9 -7 0 -12 -3 -12 -7 4 -22 -2 -33
-13 -27 -9 5 -9 2 1 -9 7 -9 10 -17 6 -17 -13 0 38 -75 77 -112 21 -21 38 -35
38 -31 0 4 7 -2 15 -13 8 -10 15 -15 15 -10 0 4 9 -2 20 -15 10 -13 19 -20 20
-15 0 5 9 -3 21 -18 11 -14 24 -24 28 -22 4 3 29 -14 56 -39 28 -25 56 -42 66
-40 12 2 16 -1 13 -10 -3 -8 3 -16 16 -20 11 -4 30 -16 40 -28 11 -11 20 -17
20 -13 0 4 11 -3 24 -16 43 -41 66 -58 82 -58 9 0 12 -5 8 -12 -4 -7 -4 -10 1
-6 4 4 16 -3 26 -15 10 -12 18 -18 19 -13 0 5 9 -1 19 -13 13 -15 20 -18 24
-9 4 10 7 10 18 -1 9 -9 9 -11 2 -7 -20 11 -15 -1 9 -24 24 -22 48 -27 48 -9
0 6 -7 9 -15 5 -8 -3 -14 0 -12 7 1 7 -4 11 -12 9 -11 -2 -11 2 2 21 l16 25
-38 -3 c-26 -2 -38 2 -38 11 0 14 7 17 39 17 9 0 19 6 22 13 6 15 -21 12 -55
-6 -16 -9 -20 -9 -14 -1 7 13 -11 41 -28 41 -5 0 -3 -8 7 -19 15 -16 15 -19 1
-31 -10 -8 -15 -9 -15 -1 0 6 5 11 10 11 6 0 5 6 -2 14 -9 10 -15 11 -20 2 -6
-8 -8 -8 -8 0 0 7 -8 11 -17 10 -10 0 -17 4 -16 11 2 8 -4 10 -15 7 -12 -4
-13 -3 -4 3 10 7 8 14 -8 28 -12 11 -20 13 -20 6 0 -7 -5 -9 -11 -5 -8 5 -8 9
1 14 9 5 9 9 1 14 -6 4 -11 1 -11 -6 0 -9 -3 -9 -10 2 -9 13 -10 13 -10 0 0
-13 -1 -13 -10 0 -5 9 -5 19 0 26 6 6 7 14 3 17 -3 4 -12 -1 -20 -11 -12 -16
-13 -16 -7 1 4 10 1 17 -6 17 -6 0 -8 -4 -5 -10 3 -5 1 -10 -5 -10 -7 0 -10 7
-6 15 5 15 -26 39 -38 28 -3 -3 -6 -1 -6 6 0 7 7 11 14 8 9 -4 13 -1 10 6 -2
7 -14 13 -24 14 -11 1 -18 -2 -15 -7 3 -5 1 -12 -5 -15 -6 -4 -9 -1 -8 7 2 8
-5 12 -17 10 -15 -2 -17 0 -6 6 8 6 9 12 3 16 -6 3 -12 1 -14 -6 -3 -7 -7 -5
-11 6 -4 9 -3 15 2 12 5 -3 11 0 14 8 6 14 -9 16 -29 3 -7 -4 -18 1 -25 10 -8
9 -9 14 -3 10 7 -4 18 0 25 9 11 14 10 15 -7 12 -10 -1 -25 -10 -32 -18 -12
-13 -13 -13 -9 1 3 9 1 22 -4 30 -7 12 -9 12 -9 0 0 -8 -3 -11 -6 -8 -4 4 -1
14 7 23 11 14 10 15 -7 12 -10 -1 -22 -7 -25 -12 -4 -4 -10 -3 -13 3 -4 6 -3
11 1 11 19 0 11 36 -9 37 -16 2 -17 -1 -7 -13 15 -18 8 -27 -15 -18 -13 5 -14
9 -6 14 9 5 9 9 1 14 -6 4 -11 2 -11 -4 0 -6 -5 -8 -11 -4 -8 5 -8 9 1 14 9 5
9 9 1 14 -6 4 -11 2 -11 -3 0 -6 -4 -11 -8 -11 -5 0 -9 6 -9 14 0 8 8 13 18
11 12 -3 17 2 16 16 -1 21 -17 27 -17 7 0 -9 -4 -8 -10 2 -8 13 -10 13 -10 -2
0 -9 -5 -20 -12 -24 -8 -5 -9 -2 -5 9 4 10 0 20 -11 26 -14 8 -14 11 -2 11 9
0 6 6 -9 14 -21 11 -21 14 -6 20 14 5 15 9 6 20 -8 10 -9 16 -1 21 10 6 14 -1
11 -18 -1 -5 3 -6 9 -2 7 4 7 13 -1 26 -7 15 -7 24 2 35 14 17 -2 19 -21 2 -8
-7 -7 -4 3 8 9 11 14 24 10 29 -5 4 2 3 13 -3 12 -6 24 -8 28 -5 3 3 6 1 6 -6
0 -7 5 -9 11 -5 14 8 -28 33 -50 29 -9 -1 -19 2 -23 8 -8 13 1 37 14 37 6 0 5
-6 -2 -15 -15 -18 1 -20 18 -3 10 10 7 15 -10 24 l-23 13 23 -2 c12 -1 22 -5
22 -10 0 -4 5 -5 11 -1 8 5 8 9 -1 14 -8 5 -8 9 3 13 12 4 15 0 12 -14 -3 -13
0 -19 8 -16 12 4 12 8 4 37 -2 8 -2 12 0 7 3 -4 9 -5 14 -1 5 3 9 0 9 -7 0 -7
8 -5 20 6 27 24 51 28 43 7 -5 -12 -2 -14 13 -9 17 6 17 5 -2 -10 -29 -24 -47
-60 -34 -68 9 -5 14 6 12 25 0 3 8 6 19 6 19 0 19 -1 3 -13 -10 -7 -15 -16
-11 -19 10 -10 39 18 33 32 -3 8 0 11 9 8 8 -3 13 -11 12 -17 -1 -7 5 -12 13
-12 8 0 22 -5 30 -10 12 -7 13 -6 3 7 -7 8 -9 19 -5 24 4 4 -1 2 -11 -5 -9 -8
-20 -11 -24 -8 -3 4 2 9 11 13 9 3 13 11 9 18 -3 6 3 2 15 -8 14 -12 22 -14
22 -7 0 7 5 9 11 5 8 -5 8 -9 -1 -14 -7 -5 1 -7 19 -6 17 0 31 5 31 11 1 5 7
-1 16 -15 13 -21 14 -22 9 -4 -4 14 0 24 10 27 8 4 14 3 14 -1 -3 -18 2 -26
10 -14 5 9 8 4 7 -16 -1 -17 -5 -28 -10 -24 -5 3 -6 0 -2 -6 3 -6 2 -13 -4
-17 -5 -3 -10 -11 -10 -17 0 -6 9 -3 19 6 13 12 21 14 26 6 3 -6 3 -10 -2 -9
-20 3 -27 -2 -14 -10 13 -8 13 -12 0 -27 -12 -16 -11 -15 15 1 l29 19 -16 -31
c-9 -17 -12 -34 -7 -39 5 -5 2 -17 -7 -29 -10 -13 -14 -14 -10 -4 3 9 0 16 -7
16 -10 0 -14 -28 -6 -47 1 -3 2 -8 1 -12 -1 -8 15 -12 32 -9 4 0 7 -4 7 -10 0
-6 -8 -8 -19 -4 -10 3 -24 -1 -31 -10 -13 -16 0 -21 16 -5 6 6 15 6 24 0 8 -5
10 -10 5 -10 -6 0 -11 -9 -12 -19 -1 -14 4 -19 17 -16 14 3 17 -1 13 -13 -4
-14 -3 -14 5 -2 6 8 8 18 6 22 -3 4 0 8 6 8 7 0 9 -7 6 -16 -3 -8 -2 -12 3 -9
5 3 13 1 16 -5 4 -6 3 -10 -2 -9 -20 3 -34 -2 -28 -11 9 -15 44 6 41 25 -1 9
-17 25 -35 36 -27 16 -31 22 -21 34 12 14 8 17 -16 14 -14 -2 -22 26 -12 38 7
9 16 10 28 3 20 -11 22 8 3 31 -12 16 -14 49 -2 49 10 0 6 20 -9 46 -6 12 -8
25 -4 29 4 5 1 5 -5 1 -7 -4 -14 -2 -14 3 -1 6 -2 17 -3 24 -1 6 5 18 14 25 8
8 10 11 4 8 -7 -3 -17 1 -24 8 -12 16 -50 17 -50 3 0 -5 -6 -4 -14 2 -10 8
-16 9 -21 1 -9 -14 -28 -13 -22 3 7 18 -61 16 -73 -3 -7 -10 -10 -11 -10 -2 0
6 -3 11 -7 11 -28 -5 -35 1 -22 17 11 14 10 18 -6 27 -25 15 -66 17 -82 4 -9
-6 -18 -5 -29 3 -8 8 -14 9 -13 4z m119 -64 c0 -5 -4 -10 -10 -10 -5 0 -10 5
-10 10 0 6 5 10 10 10 6 0 10 -4 10 -10z m275 -320 c3 -5 1 -10 -4 -10 -6 0
-11 5 -11 10 0 6 2 10 4 10 3 0 8 -4 11 -10z m-301 -46 c3 -8 2 -12 -4 -9 -6
3 -10 10 -10 16 0 14 7 11 14 -7z m440 -312 c3 -5 -1 -9 -9 -9 -8 0 -12 4 -9
9 3 4 7 8 9 8 2 0 6 -4 9 -8z"/>
<path d="M595 4150 c-10 -11 -22 -17 -28 -13 -6 4 -7 1 -3 -6 5 -7 0 -18 -10
-26 -11 -8 -21 -9 -25 -4 -3 5 -13 1 -22 -9 -15 -16 -15 -19 -2 -20 8 -1 22
-3 30 -4 8 -1 15 -5 15 -10 0 -4 4 -8 9 -8 6 0 8 9 6 20 -3 17 -1 19 16 10 24
-13 25 -22 2 -13 -15 6 -16 4 -6 -9 7 -8 10 -18 6 -21 -3 -4 1 -7 9 -7 10 0
14 8 13 23 -1 12 -3 22 -4 22 -2 0 -4 8 -6 18 -2 9 2 17 8 17 5 0 7 3 4 7 -4
3 0 11 8 17 9 7 11 16 7 24 -7 9 -13 8 -27 -8z m-4 -29 c-6 -10 -7 -21 -4 -25
3 -3 1 -6 -5 -6 -7 0 -12 3 -12 6 0 9 20 44 26 44 2 0 0 -8 -5 -19z m-34 -35
c0 -14 -33 -14 -46 0 -3 4 2 4 11 1 10 -3 20 -2 23 3 8 14 12 12 12 -4z"/>
<path d="M738 4088 c8 -10 9 -19 3 -22 -5 -4 -12 -2 -16 4 -4 6 -11 8 -16 4
-5 -3 -16 0 -24 6 -11 9 -17 7 -27 -9 -9 -15 -15 -17 -25 -9 -11 8 -12 7 -7
-7 5 -13 4 -16 -5 -11 -6 4 -11 4 -10 -1 3 -20 -2 -29 -20 -30 -15 -1 -19 4
-16 19 4 18 3 19 -18 5 -17 -11 -28 -12 -43 -4 -10 5 -16 6 -12 2 4 -5 3 -14
-3 -21 -7 -9 -6 -18 2 -33 11 -17 10 -22 -7 -38 -11 -10 -15 -15 -8 -10 8 5
10 -1 9 -18 -3 -22 0 -24 21 -21 34 6 61 -4 42 -15 -10 -7 -9 -9 4 -9 9 0 20
-5 23 -11 4 -6 0 -9 -8 -7 -9 2 -17 -1 -19 -7 -2 -5 8 -9 22 -10 29 0 50 -12
50 -26 0 -6 -5 -7 -12 -3 -7 4 -8 3 -4 -5 6 -9 11 -9 22 0 10 8 14 8 15 0 1
-6 3 -15 4 -21 1 -5 3 -14 4 -19 0 -6 11 -8 22 -6 33 7 42 -5 22 -28 -12 -13
-13 -17 -3 -12 8 5 23 11 34 12 14 3 17 -1 13 -17 -6 -23 17 -47 29 -29 5 8 3
9 -6 4 -9 -6 -11 -4 -5 5 6 10 11 9 22 -5 10 -14 13 -15 13 -4 1 8 10 -3 21
-23 14 -27 24 -36 36 -31 12 5 14 3 8 -7 -5 -9 -4 -11 3 -6 7 4 18 1 26 -6 11
-11 11 -15 -3 -25 -14 -10 -14 -11 4 -9 12 2 34 -10 58 -32 20 -20 37 -31 37
-24 0 7 -5 12 -11 12 -5 0 -8 4 -5 9 3 4 -1 16 -8 27 -8 10 -12 25 -9 34 4 13
3 13 -5 0 -6 -8 -8 -18 -6 -22 3 -4 1 -8 -4 -8 -16 0 -23 31 -11 46 13 16 -2
19 -18 3 -8 -8 -13 -7 -18 2 -6 8 -4 10 4 4 10 -6 11 -3 1 16 -18 34 -24 38
-15 10 5 -17 4 -22 -6 -19 -8 3 -12 14 -11 24 3 15 1 17 -9 7 -20 -20 -27 -15
-25 17 0 17 4 30 9 30 4 0 5 5 1 11 -4 8 -9 7 -15 -2 -4 -7 -5 -17 -3 -21 3
-4 0 -8 -5 -8 -6 0 -10 10 -8 21 1 12 -5 24 -13 26 -12 4 -12 3 -1 -5 10 -7
11 -14 2 -28 -8 -15 -11 -16 -12 -4 -1 8 -1 18 0 23 0 4 -4 7 -9 7 -6 0 -10
-5 -10 -12 0 -27 -16 10 -19 45 -1 5 -6 5 -11 2 -6 -4 -8 -10 -5 -15 3 -5 1
-11 -4 -14 -5 -3 -7 8 -6 24 1 17 -2 30 -7 30 -6 0 -7 7 -4 16 3 9 2 12 -5 9
-5 -4 -7 -16 -3 -27 5 -17 3 -20 -10 -15 -12 5 -15 3 -11 -6 4 -6 -1 -3 -9 8
-9 11 -14 25 -11 33 2 7 1 11 -3 8 -4 -2 -14 -1 -22 5 -11 6 -12 9 -2 9 7 0
10 5 6 11 -4 8 -9 7 -15 -2 -6 -9 -8 -1 -4 21 l5 35 -15 -27 c-9 -16 -18 -28
-20 -28 -8 0 -1 24 9 31 4 4 3 10 -3 13 -6 4 -11 2 -11 -3 0 -6 -8 -3 -18 7
-11 11 -14 20 -8 24 6 4 7 10 3 15 -5 4 -12 1 -17 -7 -5 -8 -12 -11 -17 -7 -4
5 -1 13 7 18 13 9 13 10 0 6 -8 -2 -14 -11 -14 -20 1 -9 -2 -14 -7 -11 -5 3
-7 17 -5 31 5 27 16 44 16 25 0 -20 16 -13 17 7 1 13 -5 18 -19 17 -12 0 -23
6 -25 14 -3 9 -1 11 4 5 12 -15 33 -17 33 -2 0 7 5 5 11 -5 6 -11 16 -15 26
-11 11 4 14 3 9 -5 -4 -7 -15 -12 -24 -12 -14 0 -15 -2 -2 -10 9 -6 17 -5 22
3 6 9 8 9 8 -1 0 -7 5 -10 11 -6 6 3 7 9 3 13 -5 3 -10 15 -12 26 -2 15 -1 17
6 6 8 -11 11 -11 16 0 3 8 4 5 1 -6 -2 -11 0 -27 6 -35 8 -12 9 -12 7 4 -2 10
3 21 11 24 9 3 11 -1 7 -16 -4 -11 -2 -23 3 -26 6 -4 8 -14 5 -24 -5 -15 -4
-15 6 1 8 13 9 22 1 31 -6 7 -7 16 -3 20 4 4 -2 14 -12 22 -11 8 -14 14 -7 14
7 0 9 5 6 10 -4 6 -11 7 -17 4 -7 -5 -8 -2 -4 5 6 9 13 8 27 -5 10 -9 19 -12
19 -6 0 6 -4 13 -10 17 -5 3 -7 12 -4 20 5 12 8 12 20 0 8 -7 11 -20 8 -28 -7
-20 15 -33 29 -18 9 9 8 11 -5 6 -19 -8 -25 9 -8 20 6 4 8 11 4 16 -9 15 20 6
33 -11 10 -12 12 -12 13 -1 0 11 3 11 17 0 14 -12 16 -12 11 1 -3 8 -12 14
-21 14 -9 -1 -14 2 -11 7 3 5 16 7 30 5 16 -3 22 -1 18 6 -5 7 -2 8 5 4 7 -5
10 -11 7 -14 -3 -3 2 -14 11 -24 14 -15 14 -21 4 -27 -9 -6 -6 -13 14 -29 22
-17 25 -24 16 -41 -6 -11 -11 -24 -10 -28 3 -20 -2 -25 -15 -13 -12 9 -15 8
-13 -9 1 -12 7 -20 15 -18 8 1 16 -8 18 -20 2 -13 -1 -23 -7 -23 -5 0 -8 4 -4
9 8 15 -13 23 -31 13 -11 -6 -13 -11 -5 -16 6 -4 11 -2 11 3 0 6 5 11 12 11 6
0 8 -3 5 -6 -3 -4 -2 -16 4 -27 7 -12 7 -17 1 -13 -14 8 -43 -4 -36 -16 4 -5
10 -5 18 1 7 6 17 6 26 1 8 -5 18 -6 22 -4 13 8 9 -11 -4 -25 -11 -11 -10 -13
0 -7 7 4 12 4 11 -1 -4 -20 2 -24 18 -12 14 12 16 12 8 0 -5 -10 -4 -12 3 -7
8 4 10 2 6 -7 -7 -20 15 -32 29 -17 9 9 7 16 -10 29 -12 10 -19 22 -15 26 4 3
0 5 -8 3 -11 -2 -15 5 -14 25 1 26 0 26 -16 12 -15 -13 -18 -14 -23 -2 -3 8 0
20 6 26 14 14 18 41 6 41 -5 0 -8 12 -6 28 3 21 9 27 26 26 15 -1 19 2 12 9
-7 7 -7 17 0 31 10 20 10 20 -5 2 -9 -10 -13 -23 -9 -29 3 -6 2 -7 -4 -4 -11
7 -11 36 1 55 7 12 6 13 -13 16 -16 2 -23 14 -15 27 12 21 14 58 2 65 -7 4 -8
2 -4 -4 10 -17 -2 -32 -19 -26 -8 4 -13 10 -10 14 3 4 -10 6 -28 5 -17 -2 -39
2 -47 8 -13 10 -13 10 -2 -5z m112 -43 c0 -12 -19 -12 -23 0 -4 9 -1 12 9 8 7
-3 14 -7 14 -8z m-283 -37 c2 -18 0 -20 -7 -8 -12 18 -13 30 -2 30 4 0 9 -10
9 -22z m298 -10 c5 4 5 1 1 -6 -6 -10 -11 -10 -22 -1 -8 6 -14 14 -14 16 0 3
6 0 13 -6 8 -6 18 -7 22 -3z m20 -237 c3 -5 2 -12 -3 -15 -5 -3 -9 1 -9 9 0
17 3 19 12 6z m45 -41 c0 -5 -2 -10 -4 -10 -3 0 -8 5 -11 10 -3 6 -1 10 4 10
6 0 11 -4 11 -10z m34 -166 c3 -8 2 -12 -4 -9 -6 3 -10 10 -10 16 0 14 7 11
14 -7z"/>
<path d="M784 4043 c1 -19 -30 -25 -52 -9 -8 6 -17 5 -25 -3 -9 -10 -8 -11 6
-6 21 9 23 -8 2 -25 -8 -6 -20 -8 -27 -4 -24 15 -40 14 -28 -1 7 -8 9 -19 6
-24 -4 -5 -2 -12 3 -16 11 -6 10 -45 -1 -45 -17 0 -23 5 -23 20 0 10 -13 15
-48 16 -38 1 -44 -1 -31 -10 8 -7 14 -18 12 -26 -2 -10 6 -15 27 -15 20 -1 30
-6 30 -17 0 -8 6 -22 13 -30 6 -8 10 -17 7 -19 -2 -3 4 -5 14 -6 10 -1 18 5
18 13 0 9 -6 13 -14 10 -9 -4 -11 -1 -7 6 4 6 3 8 -2 5 -6 -3 -10 3 -11 13 -1
11 2 22 7 25 4 2 7 -3 6 -12 0 -9 6 -18 14 -21 13 -5 13 -3 1 11 -9 12 -10 17
-2 17 7 0 10 4 6 9 -6 10 29 34 37 25 3 -2 11 3 19 13 15 18 16 18 -36 -3 -17
-7 -21 11 -5 21 6 4 8 10 5 15 -3 5 0 12 6 16 7 4 9 3 6 -3 -4 -6 0 -13 8 -16
8 -4 12 -1 9 6 -2 7 2 21 9 32 14 18 15 18 38 -1 26 -20 37 -54 19 -54 -6 0
-8 -5 -4 -11 5 -8 9 -8 14 1 5 9 9 9 14 1 7 -11 -1 -14 -36 -14 -10 0 -15 -4
-12 -9 3 -5 13 -8 22 -6 10 1 22 -1 28 -4 7 -5 10 1 8 17 -1 14 3 25 9 25 6 0
-1 13 -16 28 -18 19 -24 31 -17 38 7 7 4 16 -9 28 -18 16 -19 16 -17 -1z m26
-17 c0 -3 -4 -8 -10 -11 -5 -3 -10 -1 -10 4 0 6 5 11 10 11 6 0 10 -2 10 -4z
m18 -71 c-3 -3 -9 2 -12 12 -6 14 -5 15 5 6 7 -7 10 -15 7 -18z m-138 5 c0 -5
-2 -10 -4 -10 -3 0 -8 5 -11 10 -3 6 -1 10 4 10 6 0 11 -4 11 -10z m-56 -32
c-3 -5 0 -17 8 -26 12 -15 11 -16 -4 -3 -10 7 -18 10 -18 5 0 -4 -5 -3 -11 3
-14 14 -5 30 15 30 8 0 13 -4 10 -9z"/>
<path d="M747 3991 c-2 -10 -1 -25 4 -33 6 -10 3 -21 -9 -31 -16 -15 -21 -17
-41 -17 -11 0 -9 -53 3 -62 6 -4 14 -4 18 -2 12 8 10 24 -3 22 -22 -5 -20 21
2 32 14 8 19 8 15 1 -10 -15 7 -14 23 2 7 6 12 8 11 2 -4 -19 0 -38 7 -32 3 4
12 2 19 -4 9 -7 12 -6 10 8 -2 11 -10 17 -21 15 -9 -2 -14 1 -11 7 4 5 -2 14
-11 20 -11 6 -13 11 -5 11 14 0 12 31 -3 42 -6 5 -5 8 3 8 7 0 10 5 6 12 -4 6
-3 8 4 4 6 -3 9 -15 7 -26 -4 -20 9 -28 19 -12 6 10 -21 52 -33 52 -5 0 -11
-8 -14 -19z"/>
<path d="M705 3950 c-3 -6 1 -7 9 -4 18 7 21 14 7 14 -6 0 -13 -4 -16 -10z"/>
<path d="M710 3879 c0 -5 3 -8 8 -8 4 1 13 1 21 0 12 -1 12 -4 0 -18 -17 -22
-18 -55 -2 -60 8 -3 11 3 8 16 -2 11 1 23 6 26 5 4 7 11 4 16 -10 15 2 10 16
-8 9 -11 10 -14 2 -9 -9 5 -11 2 -7 -8 3 -9 2 -16 -3 -16 -5 0 -9 -9 -10 -20
-1 -11 2 -20 7 -20 5 0 7 -9 5 -20 -3 -17 -1 -19 16 -10 11 6 25 7 32 3 12 -8
18 -9 38 -12 6 0 8 -8 4 -18 -13 -33 -15 -57 -4 -46 17 17 20 60 5 73 -8 6
-12 18 -9 26 3 8 0 14 -6 14 -21 0 -26 -4 -23 -20 2 -8 -4 -5 -13 8 -10 13
-23 21 -31 18 -8 -3 -11 0 -7 9 3 8 8 13 13 10 4 -2 13 1 21 8 8 7 12 11 10
10 -10 -6 -29 20 -24 33 3 8 2 14 -3 13 -19 -3 -35 1 -31 9 3 4 -6 8 -19 8
-13 1 -24 -2 -24 -7z m80 -120 c0 -5 -4 -9 -8 -9 -5 0 -9 7 -9 15 0 8 4 12 9
9 4 -3 8 -9 8 -15z"/>
<path d="M695 3830 c3 -6 -1 -13 -9 -16 -20 -8 -20 -20 -2 -27 10 -4 13 -1 10
7 -3 8 -1 17 5 21 14 8 14 25 0 25 -5 0 -7 -5 -4 -10z"/>
<path d="M879 3724 c0 -5 -3 -20 -5 -34 -4 -24 -4 -24 11 -5 12 16 14 17 9 3
-4 -11 -1 -18 6 -18 6 0 9 -4 6 -8 -2 -4 -1 -14 3 -21 6 -9 11 -10 15 -2 4 6
3 11 -2 11 -5 0 -9 7 -9 15 0 22 5 19 22 -14 9 -19 11 -32 5 -36 -6 -3 -10
-11 -10 -18 0 -6 7 -2 15 9 8 10 15 15 16 9 1 -5 3 -14 4 -20 0 -5 9 -25 19
-43 14 -26 15 -36 5 -48 -9 -12 -8 -14 7 -11 11 1 25 6 32 11 9 5 22 0 38 -15
13 -12 24 -18 24 -13 0 5 14 10 30 10 18 1 30 -3 30 -11 0 -16 -25 -37 -33
-28 -4 3 -7 1 -7 -5 0 -15 17 -16 26 -1 4 8 9 7 15 -2 4 -7 3 -19 -2 -26 -12
-13 -3 -36 11 -28 11 7 21 -21 14 -40 -4 -8 -1 -15 6 -15 6 0 8 5 4 12 -4 7
-3 8 4 4 6 -4 9 -12 6 -19 -4 -11 11 -23 58 -44 4 -2 10 2 14 8 5 8 3 9 -6 4
-9 -5 -11 -4 -6 3 4 7 2 10 -6 7 -8 -3 -22 1 -33 9 -14 11 -16 15 -6 16 10 0
7 8 -9 25 -13 14 -20 25 -16 25 3 0 -1 14 -9 30 -9 17 -13 36 -9 42 5 7 3 8
-6 3 -9 -5 -11 -4 -6 4 6 9 11 9 21 1 11 -9 14 -7 12 9 -1 12 -7 20 -13 18 -7
-1 -12 1 -11 4 1 4 -7 16 -17 28 -23 25 -16 37 12 22 11 -6 23 -7 27 -3 3 4 5
0 3 -8 -2 -8 -7 -19 -13 -23 -5 -5 1 -6 15 -3 14 3 19 3 12 0 -17 -8 -5 -24
13 -17 8 3 15 0 15 -6 0 -6 -6 -10 -12 -9 -8 2 -12 -6 -11 -19 2 -13 -2 -23
-9 -23 -15 0 -1 -13 17 -16 8 -1 13 6 12 17 -1 10 -5 19 -9 19 -4 0 -8 5 -8
10 0 6 8 5 20 -2 11 -7 18 -18 16 -25 -3 -7 1 -10 9 -6 8 3 13 8 11 12 -3 4 0
13 6 21 8 12 9 12 4 -3 -3 -11 -2 -16 4 -12 9 6 14 -8 11 -27 -2 -12 14 -9 28
5 11 10 12 9 6 -2 -5 -8 -4 -12 1 -8 5 3 18 -2 29 -10 15 -12 16 -14 3 -10
-13 4 -15 2 -11 -10 4 -11 2 -14 -8 -11 -8 3 -14 10 -14 16 0 5 -3 13 -6 17
-10 10 -17 -32 -8 -46 7 -11 9 -11 9 -1 0 7 5 10 11 7 6 -5 4 -12 -8 -21 -10
-7 -13 -14 -7 -14 6 0 14 3 17 7 8 8 57 14 57 7 0 -3 -5 -14 -10 -24 -7 -13
-7 -21 0 -25 9 -6 14 8 11 28 0 4 4 7 10 7 5 0 8 4 4 9 -3 5 -1 12 5 16 6 4 8
11 4 16 -4 6 -11 6 -19 -1 -19 -16 -40 -3 -25 15 9 10 4 19 -21 37 -17 13 -35
22 -40 21 -5 -2 -13 6 -19 18 -9 16 -14 18 -25 9 -11 -9 -16 -7 -24 8 -6 11
-7 23 -3 27 4 3 2 5 -4 3 -6 -2 -20 7 -30 19 -11 12 -25 23 -33 25 -8 2 -27
17 -43 34 -20 22 -35 30 -54 28 -15 -1 -33 5 -44 16 -16 16 -19 16 -24 4 -4
-10 -2 -12 6 -8 7 4 8 3 4 -5 -8 -13 10 -41 26 -41 6 0 5 7 -2 15 -9 10 -9 15
-1 15 10 0 15 -13 12 -32 -1 -10 13 -10 22 -1 4 3 1 13 -6 22 -6 8 5 2 25 -13
21 -16 35 -32 32 -37 -3 -5 0 -17 6 -28 7 -14 7 -22 -2 -27 -6 -4 -8 -3 -5 2
3 6 -3 15 -14 22 -11 7 -19 8 -19 2 0 -5 -5 -10 -11 -10 -5 0 -8 4 -4 9 3 5 0
13 -6 17 -7 4 -9 3 -5 -4 3 -6 -1 -9 -11 -8 -10 2 -21 -2 -25 -8 -4 -6 -10 -7
-15 -3 -8 9 17 28 28 21 4 -2 7 5 6 16 -2 23 -12 26 -21 5 -6 -18 -32 -10 -35
10 -6 49 0 83 15 89 8 3 17 -2 22 -11 6 -10 12 -12 16 -5 3 6 -7 20 -24 32
-17 12 -28 25 -25 30 3 5 -4 14 -15 20 -17 9 -24 7 -40 -12 l-20 -23 -20 24
c-11 13 -20 19 -21 15z m106 -22 c-3 -3 3 -14 12 -25 10 -11 13 -17 6 -14 -11
7 -29 -27 -25 -48 1 -5 -7 1 -18 14 -11 12 -18 27 -15 31 3 5 0 12 -5 15 -16
10 18 45 36 38 8 -3 12 -8 9 -11z m136 -119 l24 -26 -27 19 c-15 10 -28 22
-28 27 0 12 5 8 31 -20z m-27 -77 c9 3 16 2 16 -3 0 -16 -38 -12 -52 5 -11 15
-11 15 3 4 9 -7 24 -10 33 -6z m76 -100 c0 -3 -4 -8 -10 -11 -5 -3 -10 -1 -10
4 0 6 5 11 10 11 6 0 10 -2 10 -4z m195 -46 c3 -5 1 -10 -4 -10 -6 0 -11 5
-11 10 0 6 2 10 4 10 3 0 8 -4 11 -10z"/>
<path d="M951 3696 c-8 -10 -9 -16 -1 -21 6 -3 8 -10 6 -14 -3 -4 -1 -13 5
-21 8 -14 11 -7 8 16 0 4 4 10 9 13 7 4 6 12 -3 24 -11 15 -14 15 -24 3z"/>
<path d="M990 3602 c0 -7 5 -12 11 -12 5 0 8 -4 5 -8 -2 -4 -1 -14 3 -21 7
-10 9 -10 14 2 3 8 -3 23 -14 33 -11 10 -19 12 -19 6z"/>
<path d="M1074 3565 c-4 -9 -2 -21 5 -28 6 -6 11 -7 11 -3 0 5 6 3 13 -3 11
-8 13 -6 12 10 -2 28 -33 46 -41 24z"/>
<path d="M1140 3536 c0 -2 7 -9 15 -16 9 -7 15 -8 15 -2 0 5 -7 12 -15 16 -8
3 -15 4 -15 2z"/>
<path d="M1170 3438 c0 -4 4 -8 9 -8 6 0 12 4 15 8 3 5 -1 9 -9 9 -8 0 -15 -4
-15 -9z"/>
<path d="M1250 3416 c-14 -8 -28 -12 -32 -10 -5 3 -8 0 -8 -7 0 -7 -7 -4 -16
7 -14 18 -15 18 -4 -3 6 -13 8 -23 4 -23 -4 0 3 -12 17 -26 13 -14 23 -29 21
-32 -2 -4 2 -8 9 -11 7 -2 10 2 6 11 -3 9 0 21 6 27 8 8 4 9 -13 6 -12 -2 -20
-2 -17 1 3 3 9 6 14 6 4 0 16 4 26 9 9 6 16 6 15 2 -2 -4 1 -10 6 -13 5 -3 10
6 11 18 1 13 -5 26 -12 29 -12 5 -12 7 -1 14 22 14 -5 9 -32 -5z m30 -16 c15
-10 12 -11 -27 -13 -10 -1 -23 -8 -29 -16 -8 -10 -13 -11 -18 -3 -7 12 27 35
38 25 3 -3 6 -1 6 5 0 14 10 15 30 2z"/>
<path d="M1255 3340 c-2 -4 2 -16 10 -26 13 -18 14 -18 20 -1 7 17 8 17 21 0
13 -17 15 -17 29 1 8 11 15 14 15 8 0 -16 17 -15 23 1 6 17 -26 16 -47 -2 -16
-13 -21 -7 -18 20 1 9 -47 8 -53 -1z"/>
<path d="M1412 3332 c-1 -9 -3 -24 -3 -34 0 -18 -13 -18 -45 0 -15 8 -24 8
-32 0 -8 -8 -15 -8 -26 1 -11 10 -17 8 -30 -11 -15 -20 -14 -23 2 -32 9 -5 28
-20 41 -32 13 -12 31 -20 39 -16 8 3 13 1 10 -4 -3 -5 3 -17 14 -26 10 -10 18
-15 18 -11 0 4 7 -3 16 -15 8 -12 21 -22 29 -22 7 0 32 -17 55 -37 23 -21 46
-38 51 -38 5 0 14 -6 18 -14 7 -10 9 -7 8 11 -2 18 -6 24 -16 20 -10 -4 -13
-1 -8 12 5 11 3 15 -5 10 -7 -4 -8 -3 -4 5 8 13 -10 41 -26 41 -6 0 -4 -7 3
-16 7 -9 14 -25 16 -35 2 -16 1 -18 -11 -7 -10 10 -11 15 -2 21 7 6 5 7 -5 4
-12 -4 -15 1 -13 19 1 16 -2 24 -9 21 -7 -2 -11 -13 -9 -23 2 -15 1 -16 -7 -4
-5 8 -8 17 -5 21 2 4 -8 6 -23 3 -20 -3 -24 -2 -13 5 8 5 18 7 22 5 4 -3 8 0
8 6 0 7 -7 10 -15 6 -38 -14 -115 63 -94 95 6 11 9 11 9 1 0 -9 6 -8 24 3 16
11 26 13 31 6 3 -6 11 -11 17 -11 7 0 5 7 -4 18 -21 25 -17 47 10 48 12 1 22
-3 22 -8 0 -5 5 -6 11 -2 8 4 7 9 -2 15 -7 4 -17 5 -21 3 -4 -3 -8 -1 -8 3 0
17 -37 11 -38 -5z m-79 -49 c11 16 14 16 32 2 11 -9 15 -14 8 -10 -17 8 -35
-29 -22 -42 7 -7 7 -13 1 -16 -5 -4 -24 10 -43 30 -19 20 -28 32 -20 28 11 -6
13 -4 8 11 -7 18 -7 18 8 0 14 -19 16 -19 28 -3z"/>
<path d="M1336 3274 c-4 -10 -12 -14 -23 -9 -13 4 -11 -1 6 -19 26 -28 42 -36
21 -11 -10 12 -10 18 0 30 7 9 11 18 8 21 -3 3 -8 -3 -12 -12z"/>
<path d="M1440 3310 c12 -8 12 -10 1 -10 -11 0 -11 -3 2 -18 9 -10 13 -23 8
-30 -6 -10 -10 -10 -20 2 -11 13 -17 13 -35 4 -11 -7 -25 -11 -31 -10 -5 1 -3
-3 5 -10 8 -7 16 -20 18 -28 7 -31 49 -34 49 -3 0 14 -2 14 -11 1 -8 -11 -14
-12 -21 -4 -7 8 -5 16 7 29 10 9 18 13 18 7 0 -14 37 -7 53 10 10 10 9 12 -4
7 -9 -3 -16 0 -16 7 0 10 16 12 47 7 2 -1 -1 -6 -8 -13 -7 -7 -12 -16 -12 -22
0 -5 9 0 20 12 12 12 26 22 33 22 16 1 -18 20 -43 25 -10 2 -28 8 -39 14 -25
14 -41 14 -21 1z m50 -25 c0 -2 -9 -3 -19 -2 -11 0 -18 5 -15 9 4 6 34 0 34
-7z m35 -13 c-3 -3 -11 0 -18 7 -9 10 -8 11 6 5 10 -3 15 -9 12 -12z m-115
-27 c-7 -9 -15 -13 -19 -10 -3 3 1 10 9 15 21 14 24 12 10 -5z"/>
<path d="M1519 3242 c-13 -10 -34 -17 -46 -16 -13 1 -23 -3 -23 -7 0 -18 -2
-24 -12 -36 -6 -8 -7 -13 -1 -13 5 0 15 11 21 25 13 28 30 32 38 10 4 -8 10
-13 15 -10 4 3 5 13 2 22 -5 13 -2 15 11 10 11 -5 15 -3 10 5 -4 7 -3 8 4 4
19 -11 14 -29 -5 -22 -11 4 -8 -2 7 -14 14 -11 21 -20 15 -20 -5 0 -4 -4 4 -9
9 -6 10 -11 2 -15 -6 -4 -11 -1 -11 6 0 9 -3 9 -10 -2 -7 -11 -10 -11 -10 -2
0 7 -5 10 -12 6 -7 -4 -8 -3 -4 5 4 6 11 9 16 6 5 -3 11 -1 14 4 3 5 -1 11 -9
15 -8 3 -19 -2 -24 -12 -8 -14 -2 -24 25 -46 21 -16 33 -34 30 -42 -3 -8 0
-13 6 -11 5 1 12 -7 14 -18 5 -29 26 -65 36 -59 4 3 8 1 8 -3 0 -14 93 -77
109 -74 7 1 10 -2 7 -8 -4 -5 3 -15 16 -22 23 -12 24 -13 77 -59 32 -28 45
-34 64 -31 4 0 7 -6 7 -14 0 -8 4 -15 8 -15 5 0 22 -11 37 -24 16 -14 36 -26
44 -29 21 -5 76 28 62 37 -6 4 -11 2 -11 -5 0 -7 -3 -9 -6 -6 -4 3 -15 2 -25
-3 -19 -11 -52 -3 -44 10 3 5 1 11 -5 15 -6 4 -8 10 -6 14 3 4 -5 8 -17 8 -18
2 -19 0 -7 -8 13 -9 13 -10 0 -6 -8 2 -14 10 -12 16 1 6 -4 11 -10 11 -9 0 -8
4 2 10 13 9 13 10 0 11 -8 1 -18 1 -22 0 -5 0 -8 4 -8 10 0 5 -4 7 -10 4 -5
-3 -10 -1 -10 6 0 8 -5 7 -17 -2 -11 -10 -14 -10 -9 -1 4 7 2 12 -6 12 -11 0
-10 2 0 9 11 7 10 9 -3 14 -9 4 -13 3 -10 -3 3 -6 1 -10 -4 -10 -6 0 -11 4
-11 9 0 5 -14 14 -31 21 -22 10 -27 15 -17 21 11 7 10 9 -1 9 -10 0 -11 3 -2
13 6 8 8 17 4 20 -3 4 -12 -1 -20 -11 -8 -9 -12 -11 -8 -5 8 17 -10 50 -19 34
-4 -6 -2 -11 3 -11 6 0 11 -5 11 -11 0 -8 -4 -9 -13 0 -8 6 -18 7 -23 3 -4 -4
-3 0 4 9 10 14 10 18 -3 22 -8 4 -14 3 -12 -1 1 -4 -1 -8 -5 -9 -5 -2 -8 -1
-8 2 0 3 0 10 0 16 0 6 7 9 14 6 10 -4 13 -1 9 8 -3 8 -9 13 -13 10 -11 -7
-42 24 -35 36 4 5 2 9 -3 9 -9 0 -12 14 -12 50 0 52 21 75 39 42 7 -13 13 -14
22 -5 9 9 4 15 -20 27 -26 14 -32 14 -37 3 -10 -27 -65 -10 -72 22 -1 7 3 21
10 30 7 9 8 13 4 9 -5 -4 -15 -3 -21 2 -8 7 -20 4 -36 -8z m90 -83 c6 9 8 0 6
-25 -2 -26 5 -53 19 -79 28 -52 23 -73 -10 -38 -13 14 -21 29 -18 34 3 5 -1 9
-8 9 -10 0 -10 2 1 9 10 7 5 17 -24 44 -28 26 -33 35 -19 34 13 -2 18 4 17 18
-2 20 -2 20 13 0 12 -16 16 -17 23 -6z m112 -216 c13 -16 12 -17 -3 -4 -10 7
-18 15 -18 17 0 8 8 3 21 -13z m184 -115 c5 4 5 1 1 -6 -5 -9 -12 -9 -27 -2
-10 6 -19 13 -19 16 0 2 8 0 19 -5 10 -6 22 -7 26 -3z"/>
<path d="M1576 3143 c-8 -9 13 -43 27 -43 8 0 6 4 -3 10 -12 8 -13 12 -2 19
11 7 11 9 -1 14 -8 3 -18 3 -21 0z"/>
<path d="M1625 3030 c10 -11 20 -20 22 -20 2 0 -2 9 -9 20 -7 11 -17 20 -22
20 -5 0 -1 -9 9 -20z"/>
<path d="M1467 3197 c-3 -7 1 -21 8 -30 12 -17 13 -17 17 0 9 34 -13 60 -25
30z"/>
<path d="M1649 3160 c-1 -17 1 -79 3 -95 1 -6 8 -17 17 -25 13 -13 14 -12 8 5
-7 19 -6 19 7 2 11 -14 15 -15 20 -5 3 7 5 4 5 -7 -2 -33 1 -45 9 -44 20 3 32
-2 26 -13 -4 -6 -3 -8 3 -5 15 9 30 -13 27 -40 -1 -19 19 -37 36 -31 14 4 50
-24 44 -35 -4 -7 -4 -9 1 -5 11 10 87 -31 80 -42 -4 -6 -1 -11 4 -11 6 -1 17
-2 24 -3 6 0 12 -5 13 -11 2 -19 16 -45 26 -45 5 0 6 5 2 12 -5 7 -2 9 8 6 8
-4 21 -2 29 2 17 11 40 -7 32 -26 -3 -7 -9 -12 -13 -9 -5 3 -16 -2 -25 -11
-15 -15 -13 -19 27 -47 24 -17 55 -42 71 -56 15 -13 27 -21 27 -17 0 5 9 -2
20 -15 10 -13 19 -20 20 -16 0 4 9 3 20 -3 11 -6 17 -16 14 -22 -4 -6 -3 -8 4
-4 5 3 12 1 14 -6 3 -8 7 -6 11 5 4 10 2 16 -6 14 -7 -1 -11 4 -10 11 2 6 -2
13 -7 13 -22 3 -26 5 -50 22 -13 9 -21 17 -16 17 5 0 3 6 -3 14 -7 8 -21 13
-32 11 -12 -3 -17 0 -13 7 5 7 2 8 -6 3 -9 -5 -11 -4 -6 4 6 9 11 9 21 1 11
-9 14 -7 12 8 -1 23 -37 27 -37 5 0 -7 -5 -13 -10 -13 -6 0 -9 6 -8 13 2 6 -3
11 -10 9 -8 -1 -11 2 -7 8 4 6 -1 7 -12 4 -17 -5 -17 -5 -1 9 10 8 15 17 11
20 -3 4 -1 7 5 7 7 0 11 3 11 8 -1 4 0 9 1 12 8 19 4 47 -6 47 -7 0 -10 -7 -7
-16 4 -14 3 -14 -5 -1 -6 8 -8 18 -6 22 3 4 1 8 -4 8 -6 0 -12 -6 -15 -14 -7
-17 -39 -15 -45 2 -2 7 -9 9 -14 6 -7 -5 -8 -2 -3 6 5 9 4 11 -3 6 -11 -6 -16
6 -13 27 0 4 -5 8 -11 9 -14 1 -29 4 -40 8 -14 4 -28 7 -40 9 -7 0 -3 8 8 17
18 14 18 15 -3 4 -32 -15 -29 -4 3 13 17 9 23 17 15 21 -6 4 -11 3 -11 -2 0
-9 -14 -12 -50 -12 -35 0 -49 3 -44 11 2 4 0 10 -6 14 -7 4 -7 12 0 26 6 10 7
19 3 19 -4 0 -2 4 6 9 9 6 10 11 2 15 -6 4 -11 2 -11 -5 0 -7 -7 -4 -15 7 -13
16 -14 16 -9 2 3 -10 1 -18 -5 -18 -6 0 -10 3 -10 8 3 20 -2 33 -11 27 -6 -4
-8 -11 -5 -16 4 -5 -2 -6 -11 -2 -11 4 -13 8 -6 11 9 3 9 9 1 23 -5 11 -14 17
-20 14 -8 -6 -13 8 -10 28 2 12 -17 8 -23 -5 -2 -7 -4 -3 -2 9 3 31 26 56 41
43 6 -5 16 -6 20 -2 5 4 5 2 2 -4 -4 -7 1 -15 10 -18 15 -6 15 -9 3 -16 -8 -5
-18 -6 -22 -4 -4 3 -8 -3 -8 -12 0 -10 3 -14 7 -11 3 4 13 1 21 -6 13 -10 15
-9 9 5 -3 10 -1 20 5 24 6 4 8 3 5 -2 -3 -6 -2 -16 4 -24 5 -9 9 -10 9 -3 0 6
8 10 18 8 9 -1 16 -8 15 -14 -2 -6 -4 -16 -5 -22 -2 -6 4 -14 12 -17 8 -2 12
-1 7 3 -4 5 0 19 8 32 9 13 12 23 8 22 -20 -3 -34 2 -28 10 3 6 -3 8 -14 6
-12 -2 -30 9 -50 32 -22 25 -36 33 -50 28 -13 -4 -23 0 -30 12 -8 14 -11 15
-12 3z m136 -180 c3 -5 1 -10 -4 -10 -6 0 -11 5 -11 10 0 6 2 10 4 10 3 0 8
-4 11 -10z m165 -140 c0 -5 -2 -10 -4 -10 -3 0 -8 5 -11 10 -3 6 -1 10 4 10 6
0 11 -4 11 -10z m101 -133 c-10 -9 -11 -8 -5 6 3 10 9 15 12 12 3 -3 0 -11 -7
-18z m114 -79 c4 -3 2 -9 -3 -12 -5 -3 -15 1 -21 8 -10 11 -9 14 3 12 9 -1 18
-5 21 -8z"/>
<path d="M1682 3115 c-7 -8 -9 -16 -5 -16 4 -1 18 -3 31 -4 21 -2 22 -1 6 16
-10 11 -18 19 -18 19 -1 -1 -7 -7 -14 -15z"/>
<path d="M1726 3047 c3 -10 9 -15 12 -12 3 3 0 11 -7 18 -10 9 -11 8 -5 -6z"/>
<path d="M1783 3053 c-7 -2 -13 -11 -13 -18 0 -8 6 -17 13 -21 6 -4 9 -4 5 1
-4 4 -3 16 3 26 5 11 8 19 7 18 -2 0 -9 -3 -15 -6z"/>
<path d="M1830 3040 c0 -5 1 -11 1 -12 1 -2 -8 -22 -19 -45 -18 -34 -19 -43
-8 -53 11 -8 16 -8 22 1 4 7 3 9 -4 5 -8 -5 -10 21 -2 32 3 3 7 19 9 33 0 5 7
7 14 2 6 -4 17 -8 24 -9 6 -1 19 -7 30 -13 14 -8 15 -11 3 -12 -8 -1 -18 -1
-22 0 -13 2 -9 -17 5 -23 6 -2 2 -4 -11 -2 -13 1 -27 8 -32 15 -5 9 -10 10
-14 3 -3 -6 -2 -13 3 -17 6 -3 8 -12 4 -20 -3 -8 0 -15 7 -15 6 0 8 5 4 12 -5
7 -2 9 8 6 8 -4 21 -2 29 2 8 5 19 4 26 -2 11 -9 10 -15 -3 -36 -9 -13 -11
-22 -6 -18 6 3 13 2 16 -2 7 -11 49 -8 53 4 2 5 -7 15 -18 23 -19 11 -21 11
-16 -3 3 -8 2 -18 -2 -20 -5 -3 -8 5 -7 17 1 12 7 21 14 20 7 -2 12 2 12 9 0
6 3 8 6 5 4 -3 15 -2 25 4 15 8 17 6 12 -8 -5 -12 -2 -15 10 -10 11 4 15 1 12
-13 -2 -11 1 -22 6 -26 17 -10 4 44 -15 65 -15 16 -22 18 -33 10 -10 -9 -19
-6 -38 15 -13 14 -19 26 -13 26 7 0 3 6 -7 14 -11 8 -24 11 -30 8 -18 -11 -36
-11 -34 1 3 24 -1 37 -11 37 -5 0 -10 -4 -10 -10z m75 -40 c3 -5 1 -10 -4 -10
-6 0 -11 5 -11 10 0 6 2 10 4 10 3 0 8 -4 11 -10z m32 -49 c10 -15 9 -20 -2
-25 -15 -5 -39 27 -28 38 10 10 18 7 30 -13z"/>
<path d="M1916 2947 c3 -10 9 -15 12 -12 3 3 0 11 -7 18 -10 9 -11 8 -5 -6z"/>
<path d="M1842 2970 c9 -14 14 -16 20 -7 12 18 10 23 -12 24 -17 1 -18 -1 -8
-17z"/>
<path d="M1961 2910 c-10 -5 -9 -9 3 -13 10 -4 14 -16 11 -37 -2 -17 0 -28 6
-24 5 3 6 11 2 17 -4 8 -2 8 9 -1 13 -10 17 -10 21 2 4 9 1 18 -5 22 -7 5 -8
2 -3 -6 5 -9 4 -11 -4 -6 -8 5 -9 12 -2 20 13 15 -20 38 -38 26z"/>
<path d="M2030 2863 c-7 -16 -12 -32 -11 -37 1 -5 -5 -4 -13 4 -20 15 -20 2
-2 -23 11 -14 15 -15 19 -5 4 10 6 10 6 -1 1 -11 5 -10 15 5 11 14 17 16 27 7
6 -6 17 -9 24 -7 8 3 12 -6 13 -26 0 -16 -3 -30 -7 -30 -4 0 -8 -6 -8 -12 0
-7 -2 -20 -4 -28 -3 -9 4 -15 18 -16 12 -1 20 3 17 7 -3 5 -1 9 5 9 11 0 24
-18 27 -37 3 -17 56 -85 62 -79 9 10 42 -15 36 -27 -4 -7 -4 -9 1 -5 4 4 15 3
25 -2 12 -6 17 -5 17 5 0 7 -7 11 -16 8 -9 -2 -5 2 8 10 15 9 20 17 12 21 -6
4 -11 3 -11 -3 0 -13 -73 -2 -87 14 -4 4 -3 5 4 1 6 -3 14 -2 18 4 6 9 -7 14
-27 11 -5 0 -8 4 -8 10 0 6 8 8 18 5 14 -5 14 -4 -2 9 -11 8 -14 15 -7 15 7 0
9 5 5 11 -3 6 -9 7 -13 3 -3 -5 -13 -10 -21 -11 -10 -2 -9 1 4 10 11 6 28 20
38 30 10 9 18 12 18 6 0 -17 23 -5 26 14 3 23 -11 30 -26 12 -11 -13 -15 -13
-40 0 -18 10 -31 11 -35 5 -5 -9 6 -14 25 -12 3 0 6 -7 6 -17 0 -10 -9 -18
-21 -19 -15 -1 -17 1 -5 8 8 5 11 12 7 17 -5 4 -12 1 -16 -6 -6 -9 -11 -10
-15 -2 -4 6 -2 11 5 11 7 0 9 3 5 7 -4 4 -16 -3 -27 -17 -14 -18 -17 -19 -11
-5 6 11 11 25 12 30 1 6 7 9 14 8 6 -2 12 6 13 18 2 16 -1 18 -12 9 -10 -8
-15 -8 -21 1 -4 7 -3 9 2 6 25 -15 6 39 -25 72 -18 20 -31 31 -27 25 3 -7 -1
-14 -9 -17 -9 -4 -12 -1 -8 9 9 25 -3 15 -17 -13z m47 1 c-3 -3 4 -16 17 -28
12 -11 15 -15 6 -8 -24 18 -35 15 -19 -5 13 -16 12 -17 -3 -4 -14 10 -21 11
-32 2 -10 -9 -15 -8 -19 3 -4 9 -1 18 5 22 7 4 8 3 4 -4 -4 -7 -3 -12 1 -12 5
0 14 9 21 20 7 11 15 20 19 20 3 0 4 -3 0 -6z m170 -129 c0 -8 -4 -12 -9 -9
-5 3 -6 10 -3 15 9 13 12 11 12 -6z m-37 -15 c0 -5 -4 -10 -10 -10 -5 0 -10 5
-10 10 0 6 5 10 10 10 6 0 10 -4 10 -10z m-25 -60 c3 -5 1 -10 -4 -10 -6 0
-11 5 -11 10 0 6 2 10 4 10 3 0 8 -4 11 -10z"/>
<path d="M2145 2820 c3 -6 1 -10 -4 -10 -6 0 -11 -4 -11 -10 0 -5 6 -9 13 -7
6 1 11 -6 11 -15 -1 -11 5 -15 17 -13 11 2 19 -1 19 -7 0 -6 6 -6 15 2 14 11
14 15 -2 30 -10 10 -21 16 -25 13 -5 -2 -8 0 -8 5 0 6 -7 13 -16 16 -8 3 -12
2 -9 -4z m64 -46 c2 -2 -6 -2 -17 -1 -11 0 -25 9 -31 20 -11 17 -11 17 16 1
15 -10 30 -19 32 -20z"/>
<path d="M2288 2718 c-3 -7 -20 -13 -39 -13 -28 -1 -34 -5 -35 -24 -1 -12 4
-25 12 -28 7 -2 11 -13 9 -23 -4 -20 25 -32 46 -19 22 14 41 -9 27 -35 -6 -11
-11 -23 -10 -26 0 -3 -6 -4 -14 -2 -17 4 -19 -22 -1 -36 19 -16 51 10 34 28
-10 10 -9 11 3 5 13 -8 13 -7 1 8 -9 11 -10 17 -2 17 6 0 11 -5 11 -12 0 -16
13 -1 16 18 2 10 -3 14 -13 10 -13 -6 -14 -4 -3 9 9 11 15 13 20 5 4 -7 10
-11 14 -11 19 3 26 0 24 -10 -2 -6 3 -13 10 -14 7 -2 8 -1 2 2 -5 2 -7 9 -4
15 3 5 13 0 21 -12 11 -15 18 -19 26 -11 7 7 15 7 26 -2 8 -6 12 -7 8 -1 -3 6
0 11 7 11 9 0 12 -7 8 -16 -3 -9 -2 -13 3 -9 4 4 14 3 22 -3 9 -8 13 -8 13 -1
0 19 -53 54 -61 41 -5 -8 -10 -5 -18 8 -5 11 -7 24 -3 29 4 5 -3 1 -15 -9 -14
-12 -23 -15 -28 -7 -3 5 -11 8 -16 5 -5 -3 -6 1 -3 9 3 9 11 13 16 10 6 -4 0
8 -13 25 -20 28 -25 30 -35 16 -9 -13 -13 -13 -22 -2 -8 9 -8 17 -1 24 7 7 3
10 -15 8 -26 -3 -36 10 -14 17 9 3 9 6 1 11 -6 4 -13 2 -15 -5z m0 -36 c-2
-20 3 -32 12 -27 5 3 6 13 3 23 -3 9 4 5 15 -10 12 -14 30 -25 40 -23 25 4 35
-5 21 -21 -16 -20 -32 -17 -25 4 3 10 -1 8 -11 -6 l-16 -23 -23 28 c-12 15
-26 24 -30 20 -5 -4 -3 -12 5 -16 10 -7 10 -9 -2 -14 -9 -3 -21 2 -29 11 -9
11 -10 14 0 8 6 -4 12 -3 12 2 0 15 -26 33 -35 24 -5 -4 -5 -1 -1 6 4 7 11 10
16 7 4 -3 10 2 14 10 5 14 36 11 34 -3z m147 -92 c-3 -5 -1 -10 6 -10 7 0 10
-3 6 -6 -9 -9 -28 6 -22 17 4 5 8 9 11 9 3 0 2 -4 -1 -10z m-132 -67 c-3 -7
-6 -13 -8 -13 -2 0 -5 6 -8 13 -3 8 1 14 8 14 7 0 11 -6 8 -14z"/>
<path d="M2257 2676 c-3 -8 -2 -18 3 -21 13 -8 20 9 11 24 -6 10 -10 9 -14 -3z"/>
<path d="M2307 2653 c-3 -5 1 -16 8 -26 10 -15 14 -15 18 -3 6 16 -18 42 -26
29z"/>
<path d="M2355 2580 c-3 -5 -3 -10 1 -10 4 0 -1 -9 -11 -20 -17 -19 -12 -26
18 -21 4 0 7 -4 7 -10 0 -5 5 -7 11 -3 8 4 3 11 -12 20 -22 12 -22 13 -3 11
24 -1 53 -27 32 -27 -8 0 -6 -5 5 -11 9 -6 15 -14 12 -19 -3 -5 -1 -11 4 -14
5 -3 12 1 15 9 3 9 0 18 -7 21 -7 2 -13 14 -14 24 -1 11 2 18 8 15 5 -4 9 -12
9 -18 0 -7 8 -13 19 -14 13 -1 18 4 16 20 -3 31 -3 31 -19 18 -10 -8 -16 -9
-21 -1 -3 6 -11 8 -16 5 -11 -8 -51 19 -42 28 3 4 4 7 0 7 -3 0 -9 -4 -12 -10z"/>
<path d="M2479 2534 c-1 -2 -2 -10 -3 -16 -1 -7 -9 -12 -18 -12 -11 1 -15 -5
-13 -16 2 -10 -3 -21 -10 -24 -16 -6 -38 17 -27 29 4 5 1 5 -5 1 -7 -4 -13 -3
-13 2 0 5 -6 9 -12 9 -7 0 -17 2 -23 3 -21 5 -45 0 -45 -10 0 -6 11 -8 24 -6
13 2 27 1 31 -2 4 -4 12 -7 18 -7 7 -1 11 -7 9 -14 -1 -7 2 -10 9 -5 8 4 9 3
5 -5 -6 -8 -12 -9 -20 -2 -7 6 -17 7 -21 3 -5 -4 -5 -1 0 7 6 10 4 12 -5 6 -8
-5 -11 -4 -7 2 3 5 0 10 -8 10 -23 0 -18 -12 13 -28 15 -8 30 -18 34 -24 4 -5
13 -10 20 -10 7 -1 12 -6 11 -13 -2 -6 4 -9 12 -6 10 4 15 0 15 -12 0 -15 2
-16 13 -5 10 11 9 14 -1 18 -6 3 -10 9 -7 14 4 5 -1 6 -9 3 -8 -3 -19 3 -25
14 -9 18 -8 20 13 18 19 -2 23 1 21 15 -5 25 7 24 23 -1 7 -12 17 -18 23 -14
6 3 4 10 -6 18 -15 10 -14 12 4 12 11 0 17 -4 15 -8 -3 -4 0 -8 6 -8 7 0 10 6
7 13 -2 6 -13 10 -23 9 -14 -3 -16 -1 -8 8 6 6 21 12 33 13 11 1 21 5 21 10 0
5 -6 7 -14 4 -8 -3 -17 -3 -20 1 -8 7 -35 12 -37 6z m31 -9 c0 -1 -10 -10 -22
-21 -14 -12 -18 -13 -10 -3 6 9 10 18 7 21 -3 2 2 5 10 5 8 0 15 -1 15 -2z"/>
<path d="M2555 2510 c-3 -5 -11 -7 -17 -4 -6 4 -8 -1 -4 -12 3 -11 1 -26 -4
-34 -5 -8 -10 -11 -10 -6 0 5 -7 3 -15 -4 -8 -7 -13 -16 -10 -20 3 -5 0 -12
-6 -16 -8 -4 -9 -3 -5 4 4 7 1 12 -6 12 -11 0 -11 2 0 9 10 6 10 10 -2 20 -12
10 -14 8 -10 -16 3 -15 6 -37 6 -48 2 -19 36 -52 50 -48 4 2 10 -6 13 -17 6
-18 8 -19 22 -4 15 15 18 14 32 -3 10 -12 28 -19 49 -18 17 1 32 -2 32 -7 0
-4 3 -7 8 -7 18 3 33 -2 28 -9 -7 -11 4 -25 41 -50 33 -24 72 -21 50 3 -14 15
-31 9 -21 -7 4 -7 2 -8 -5 -4 -6 4 -9 12 -6 17 4 5 1 9 -4 9 -30 0 -54 21 -37
32 7 5 7 8 0 8 -6 0 -11 7 -12 15 -1 8 -3 22 -4 30 -1 8 -4 15 -8 15 -3 0 -6
16 -6 36 1 29 -5 41 -26 57 -15 11 -37 21 -50 23 -13 1 -27 3 -31 3 -5 1 -6 4
-3 9 2 4 -2 15 -9 25 -8 12 -15 14 -20 7z m20 -38 c1 -34 15 -58 35 -59 11 -1
19 1 19 5 -3 19 2 32 12 32 6 0 7 -5 2 -12 -19 -31 -6 -88 20 -88 7 0 7 4 -1
12 -8 8 -9 15 -1 25 8 9 8 17 0 27 -8 9 -8 16 -2 20 15 10 25 -14 26 -64 1
-25 4 -51 9 -58 5 -8 2 -10 -8 -6 -9 3 -13 10 -10 15 3 5 0 9 -5 9 -6 0 -11
-6 -11 -12 0 -7 -7 -2 -16 10 -8 12 -20 20 -25 16 -6 -3 -3 -11 6 -18 15 -10
14 -12 -4 -12 -11 0 -17 4 -15 8 3 4 1 8 -5 8 -5 0 -9 9 -8 20 1 21 17 29 17
8 0 -15 13 -1 16 17 3 20 -35 14 -42 -7 -3 -10 -15 -23 -27 -29 -21 -10 -21
-10 -3 5 21 17 16 33 -6 20 -22 -14 -36 -13 -53 6 -15 16 -15 19 0 34 9 9 20
14 25 11 8 -5 18 15 21 40 0 6 5 18 11 28 11 21 23 15 23 -11z m38 -29 c-3 -7
-8 -13 -12 -13 -4 0 -8 6 -8 13 0 8 6 14 13 14 7 0 10 -6 7 -14z m-88 -3 c3
-5 1 -10 -4 -10 -6 0 -11 5 -11 10 0 6 2 10 4 10 3 0 8 -4 11 -10z m135 -40
c0 -5 -4 -10 -10 -10 -5 0 -10 5 -10 10 0 6 5 10 10 10 6 0 10 -4 10 -10z"/>
<path d="M2549 2438 c-2 -24 3 -43 14 -55 11 -11 13 6 8 60 -2 12 -21 8 -22
-5z"/>
<path d="M2503 2395 c-10 -11 -10 -16 0 -22 33 -20 56 -5 37 24 -9 15 -10 14
-6 -7 3 -14 3 -19 0 -12 -3 6 -10 10 -15 7 -5 -4 -6 1 -3 9 7 20 3 20 -13 1z"/>
<path d="M2665 2381 c-3 -5 -2 -12 3 -15 5 -3 9 1 9 9 0 17 -3 19 -12 6z"/>
<path d="M2630 2356 c0 -2 8 -10 18 -17 15 -13 16 -12 3 4 -13 16 -21 21 -21
13z"/>
<path d="M2430 2440 c0 -5 5 -10 10 -10 6 0 10 5 10 10 0 6 -4 10 -10 10 -5 0
-10 -4 -10 -10z"/>
<path d="M2723 2367 c-11 -17 -13 -37 -4 -37 4 0 8 -7 9 -15 1 -8 3 -22 4 -30
1 -13 41 -34 44 -24 1 2 12 -5 23 -16 l22 -19 -20 -16 c-14 -10 -18 -20 -12
-29 7 -11 10 -9 16 8 3 11 11 21 16 21 6 0 8 -4 4 -9 -6 -10 11 -24 32 -27 21
-4 9 34 -15 45 -14 7 -20 16 -16 23 5 7 3 8 -5 3 -10 -5 -9 -2 0 13 7 12 17
18 21 16 4 -3 8 0 8 6 0 6 5 8 11 4 8 -4 3 -12 -12 -21 -21 -11 -21 -13 -4
-11 12 2 19 -2 18 -9 -2 -7 2 -13 8 -13 5 0 7 -4 4 -10 -3 -5 -1 -10 5 -10 7
0 10 7 7 14 -4 10 -1 13 9 9 7 -3 14 0 14 7 0 6 -4 9 -9 6 -5 -3 -14 1 -21 9
-9 10 -9 15 -1 15 6 0 3 8 -6 18 -10 10 -20 15 -23 12 -3 -4 -13 -7 -22 -7
-13 0 -17 7 -14 22 3 18 0 22 -20 19 -21 -2 -28 6 -26 27 2 13 -38 17 -45 6z
m27 -31 c-8 -8 -13 -7 -20 4 -12 20 -1 33 16 19 11 -9 12 -15 4 -23z m16 -15
c-3 -5 2 -15 11 -22 14 -12 15 -11 10 11 -4 14 -4 19 -1 12 3 -6 9 -10 14 -7
4 3 7 -3 6 -13 0 -9 5 -16 12 -14 8 1 11 -2 7 -8 -5 -8 -11 -7 -21 1 -17 14
-19 -2 -1 -21 10 -12 9 -12 -4 -2 -9 6 -19 9 -23 5 -4 -4 -4 1 0 12 7 18 6 18
-9 6 -11 -9 -17 -10 -17 -2 0 6 5 11 11 11 5 0 7 5 4 10 -4 6 -10 8 -15 5 -5
-3 -12 0 -16 6 -4 7 -3 9 4 5 6 -3 13 -2 17 4 3 5 8 10 11 10 3 0 3 -4 0 -9z
m84 -121 c0 -5 -5 -10 -11 -10 -5 0 -7 5 -4 10 3 6 8 10 11 10 2 0 4 -4 4 -10z"/>
<path d="M2842 2241 c-11 -7 -11 -9 0 -14 9 -3 15 1 15 9 0 8 -1 14 -1 14 -1
0 -7 -4 -14 -9z"/>
<path d="M2898 2218 c-17 -17 -22 -28 -13 -28 8 0 17 -5 21 -12 5 -8 2 -9 -9
-5 -9 3 -19 2 -22 -4 -4 -5 -10 -7 -15 -4 -4 3 -11 -2 -14 -10 -4 -13 -2 -14
14 -5 16 8 22 8 26 -3 2 -7 10 -14 17 -15 7 -1 27 -3 45 -5 18 -3 35 0 39 6 3
5 1 7 -4 4 -13 -8 -26 20 -17 34 4 6 10 6 18 0 10 -8 12 -5 11 12 -1 12 -5 20
-10 19 -4 -2 -11 0 -14 5 -3 4 -15 15 -26 23 -19 15 -22 14 -47 -12z m66 -39
c-9 -15 -24 0 -17 19 8 23 -1 13 -17 -18 -7 -14 -9 -22 -5 -18 10 9 35 -10 35
-26 0 -7 -4 -6 -9 2 -4 8 -11 13 -15 13 -21 -3 -28 1 -23 13 3 7 1 18 -5 24
-14 14 -1 32 19 25 12 -5 14 -3 9 8 -4 8 2 3 13 -10 12 -12 18 -27 15 -32z"/>
<path d="M2910 2200 c0 -5 5 -10 11 -10 5 0 7 5 4 10 -3 6 -8 10 -11 10 -2 0
-4 -4 -4 -10z"/>
<path d="M3782 1747 c-7 -8 -9 -16 -7 -19 3 -3 -8 -11 -25 -18 -16 -7 -30 -19
-30 -27 0 -8 -5 -11 -12 -8 -7 4 -4 0 6 -9 10 -8 24 -12 29 -9 8 5 7 8 -1 11
-7 2 -12 8 -12 13 0 6 5 7 10 4 6 -3 10 -1 10 5 0 7 7 9 16 6 10 -4 13 -2 8 7
-4 6 -3 9 1 4 5 -4 9 -17 10 -29 2 -19 1 -19 -11 -4 -7 10 -15 13 -18 7 -4 -5
-2 -12 4 -16 6 -4 7 -11 4 -17 -4 -6 2 -6 15 1 17 10 20 9 15 -4 -3 -8 -9 -13
-13 -11 -4 3 -12 2 -18 -2 -8 -5 -7 -13 4 -27 15 -19 15 -19 9 5 -7 24 -6 24
8 6 9 -11 12 -22 8 -25 -13 -10 -8 -44 8 -49 13 -5 13 -3 1 11 -9 11 -10 17
-2 17 6 0 11 -5 11 -12 0 -6 3 -8 6 -5 4 4 2 12 -4 20 -7 8 -7 18 -2 27 5 9 5
19 -1 27 -7 8 -7 19 2 34 9 19 9 25 -5 35 -14 10 -14 13 -2 17 16 6 15 39 -1
44 -5 2 -15 -3 -21 -10z m19 -4 c-10 -4 -10 -7 -1 -13 9 -5 8 -9 -3 -13 -13
-5 -16 5 -8 31 1 1 7 2 14 1 8 0 8 -2 -2 -6z m9 -63 c0 -5 -4 -10 -10 -10 -5
0 -10 5 -10 10 0 6 5 10 10 10 6 0 10 -4 10 -10z"/>
<path d="M3674 1655 c-3 -8 -10 -13 -14 -10 -4 2 -16 -5 -26 -18 -19 -21 -19
-21 0 -7 18 14 18 13 11 -10 -7 -23 -7 -24 10 -10 17 14 18 13 12 -3 -4 -12
-1 -20 11 -24 9 -4 22 -13 28 -21 6 -8 16 -12 22 -8 7 4 12 3 12 -3 0 -9 46
-46 66 -53 5 -2 11 1 14 7 3 5 -4 10 -14 10 -11 0 -21 7 -23 15 -4 13 -3 13 6
0 8 -12 13 -12 19 -3 4 7 17 11 28 9 16 -3 20 1 19 17 -2 21 -25 38 -25 17 0
-6 6 -8 13 -4 7 4 9 3 4 -2 -5 -5 -12 -9 -15 -9 -4 0 -13 -4 -20 -9 -17 -10
-45 13 -38 31 3 8 -1 16 -9 19 -8 4 -13 10 -10 14 3 5 1 11 -5 15 -7 4 -6 13
1 28 9 18 9 20 -1 10 -10 -9 -19 -9 -42 3 -25 13 -29 13 -34 -1z m54 -20 c3
-3 0 -5 -6 -5 -7 0 -12 -4 -12 -10 0 -5 3 -9 8 -9 19 3 29 -2 29 -16 0 -8 -4
-12 -9 -9 -4 3 -8 1 -8 -4 0 -17 13 -22 29 -10 13 10 14 10 4 -2 -10 -10 -9
-16 4 -25 11 -8 12 -14 5 -19 -6 -3 -16 3 -22 14 -6 11 -16 18 -22 14 -14 -9
-29 17 -22 41 5 19 4 19 -9 3 -8 -10 -18 -18 -23 -18 -4 0 -3 5 3 11 9 9 6 17
-10 31 -12 11 -17 17 -10 14 6 -4 14 -2 18 3 5 10 42 7 53 -4z"/>
<path d="M3673 1627 c-3 -6 -1 -7 5 -3 5 3 12 1 14 -6 3 -8 6 -7 10 3 7 17
-19 22 -29 6z"/>
<path d="M3716 1593 c-4 -9 -3 -20 1 -24 4 -4 9 3 9 17 2 28 -1 31 -10 7z"/>
<path d="M3871 1567 c-4 -39 0 -77 9 -77 4 0 7 -6 7 -12 0 -7 3 -20 5 -28 3
-8 3 -12 1 -7 -3 4 -9 4 -15 1 -5 -3 -9 0 -7 7 4 33 -1 44 -13 25 -9 -16 -7
-23 12 -38 12 -10 26 -15 31 -12 5 3 9 0 9 -5 0 -6 5 -11 11 -11 5 0 7 5 3 12
-4 7 -3 8 4 4 6 -4 9 -13 5 -21 -3 -8 0 -15 6 -15 22 0 26 -2 33 -15 9 -15
118 -89 133 -90 6 -1 9 -7 7 -14 -1 -7 2 -10 8 -6 6 3 7 11 4 17 -5 7 -2 8 6
3 9 -5 11 -4 6 4 -4 6 -12 9 -17 6 -5 -4 -9 -2 -9 3 0 6 7 13 16 16 8 3 12 2
9 -3 -3 -5 -1 -12 5 -16 5 -3 10 -1 10 4 0 6 3 10 8 10 4 -1 9 0 12 1 20 7 41
7 47 -2 3 -6 1 -8 -4 -5 -6 4 -16 0 -23 -8 -11 -13 -10 -14 4 -9 9 3 16 2 16
-3 0 -5 -6 -10 -12 -10 -7 0 -21 -4 -30 -8 -11 -4 -18 -3 -18 5 0 6 -4 8 -10
5 -17 -10 -11 -25 10 -25 11 0 19 -3 18 -7 -2 -5 1 -9 6 -10 5 -1 12 -7 16
-13 5 -8 9 -7 13 5 5 10 3 14 -5 9 -7 -5 -8 -3 -3 6 5 8 4 11 -3 6 -6 -3 -13
-2 -16 3 -4 5 2 8 11 7 10 -2 24 6 31 18 12 20 13 20 8 1 -6 -20 -6 -20 9 -1
13 17 16 15 15 -9 0 -3 7 -19 16 -36 12 -23 13 -34 4 -43 -8 -8 -16 -5 -30 13
-10 14 -16 31 -13 38 3 7 1 13 -5 13 -7 0 -9 -26 -3 -50 0 -3 19 -16 41 -30
22 -14 40 -28 40 -32 0 -5 7 -8 15 -8 8 0 15 -6 15 -12 0 -9 3 -8 9 2 12 18 5
31 -13 24 -8 -3 -17 -1 -21 5 -3 7 0 8 9 5 9 -3 16 -1 16 4 0 6 -9 9 -19 7
-14 -3 -18 1 -14 12 5 12 8 12 15 1 7 -9 8 -7 4 7 -6 20 -6 20 9 1 8 -11 15
-18 16 -15 0 2 2 12 4 22 2 9 -1 17 -6 17 -6 0 -7 6 -3 13 4 6 -4 2 -18 -11
-30 -28 -44 -11 -21 25 14 21 13 22 -7 18 -18 -3 -20 0 -15 18 4 15 3 18 -3 9
-7 -11 -11 -10 -16 4 -3 9 -9 14 -13 10 -3 -3 -13 3 -20 14 -8 11 -19 17 -25
14 -7 -5 -9 -1 -5 9 7 19 -8 33 -18 16 -4 -5 -14 -8 -22 -5 -8 3 -12 2 -9 -3
12 -18 -23 -19 -39 -1 -15 17 -15 21 -3 39 8 12 19 18 24 13 4 -4 2 1 -5 11
-8 9 -16 15 -19 12 -3 -3 -11 0 -19 6 -10 9 -13 8 -13 -1 0 -10 -3 -10 -15 0
-8 7 -12 16 -9 21 8 14 -12 10 -25 -4 -6 -8 -7 -18 -3 -22 4 -5 1 -5 -5 -1 -9
5 -11 2 -6 -10 5 -14 8 -13 18 6 8 15 15 19 19 11 4 -6 2 -11 -4 -11 -6 0 -8
-5 -4 -11 5 -8 9 -8 14 1 5 8 9 7 14 -5 4 -11 12 -15 24 -11 15 5 15 4 -2 -8
-11 -9 -15 -19 -10 -28 12 -19 14 -38 3 -38 -5 0 -9 5 -9 11 0 5 -4 8 -8 5 -4
-2 -14 0 -22 6 -12 8 -12 9 2 4 10 -3 20 -1 23 4 4 6 1 10 -6 10 -7 0 -9 3 -6
7 8 8 -11 33 -25 33 -6 0 -5 -7 2 -15 7 -9 10 -18 6 -22 -3 -3 -6 0 -6 8 0 11
-2 11 -10 -1 -7 -11 -10 -11 -10 -2 0 7 -4 11 -9 7 -5 -3 -13 0 -17 6 -4 7 -3
9 4 5 6 -3 13 -2 17 4 6 10 -3 13 -37 13 -10 0 -18 4 -18 8 0 5 5 9 10 9 16 0
12 16 -5 18 -8 1 -22 3 -30 4 -13 1 -16 5 -15 23 0 3 -7 19 -15 35 -9 17 -12
30 -8 30 5 0 1 5 -7 10 -9 6 -11 10 -3 10 7 0 10 7 7 18 -5 13 -4 14 4 3 6 -8
9 -22 7 -32 -2 -10 3 -20 11 -23 9 -3 12 -1 9 4 -3 6 -4 10 -1 10 3 0 10 -9
16 -20 9 -16 8 -18 -5 -14 -20 8 -19 -6 3 -22 16 -13 16 -14 -3 -8 -16 5 -17
4 -5 -4 8 -6 17 -9 21 -6 4 2 9 -2 12 -8 3 -7 4 -2 3 12 -1 14 -5 31 -9 36 -3
6 -4 21 -2 33 3 19 2 21 -10 11 -11 -9 -17 -5 -29 19 -21 39 -31 45 -35 18z
m219 -161 c0 -3 -4 -8 -10 -11 -5 -3 -10 -1 -10 4 0 6 5 11 10 11 6 0 10 -2
10 -4z m90 -71 c-7 -8 -17 -15 -23 -15 -6 0 -2 7 9 15 25 19 30 19 14 0z m-70
-12 c0 -5 -5 -15 -10 -23 -7 -12 -9 -10 -7 8 1 19 17 33 17 15z m180 -83 c0
-5 -5 -10 -11 -10 -5 0 -7 5 -4 10 3 6 8 10 11 10 2 0 4 -4 4 -10z m0 -60 c0
-5 -5 -10 -11 -10 -5 0 -7 5 -4 10 3 6 8 10 11 10 2 0 4 -4 4 -10z"/>
<path d="M3827 1507 c4 -7 6 -21 5 -32 -3 -18 -1 -17 17 5 22 28 22 29 -8 35
-15 3 -19 0 -14 -8z"/>
<path d="M3994 1493 c4 -6 2 -14 -4 -18 -6 -4 -8 -11 -5 -16 4 -5 2 -9 -3 -9
-6 0 -9 -10 -8 -23 0 -13 6 -24 13 -24 7 0 10 4 7 9 -3 4 7 19 23 33 15 14 23
24 16 23 -6 -2 -19 6 -28 17 -9 11 -14 15 -11 8z m16 -32 c0 -5 -8 -15 -17
-22 -16 -12 -17 -12 -6 2 7 9 10 19 6 22 -3 4 -1 7 5 7 7 0 12 -4 12 -9z"/>
<path d="M4167 1296 c-10 -8 -14 -16 -10 -19 5 -3 14 3 21 14 14 22 13 23 -11
5z"/>
<path d="M4239 1268 c-11 -33 12 -91 28 -74 4 4 3 10 -2 14 -10 7 -17 27 -18
50 0 10 -5 17 -8 10z"/>
<path d="M4353 1212 c0 -12 5 -22 9 -22 11 0 10 12 -2 30 -7 12 -9 10 -7 -8z"/>
<path d="M4404 1184 c8 -16 -19 -25 -33 -11 -14 14 -37 -5 -26 -22 8 -13 37
-11 47 4 4 5 9 7 12 5 2 -3 -7 -18 -20 -35 -14 -16 -22 -22 -18 -12 3 9 1 17
-5 17 -12 0 -15 -23 -4 -33 3 -4 13 -1 20 5 12 10 14 8 11 -7 -2 -13 4 -20 20
-24 13 -3 24 -10 25 -16 0 -5 22 -23 47 -40 25 -16 48 -34 52 -40 5 -6 8 -4 8
5 1 9 6 5 15 -10 13 -24 14 -24 12 -2 -1 20 -9 26 -29 23 -5 0 -8 4 -8 10 0 5
-4 7 -10 4 -5 -3 -10 -1 -10 4 0 14 6 14 30 1 13 -7 21 -7 25 0 5 9 -6 14 -25
12 -3 0 -6 7 -6 17 0 10 6 18 13 18 7 0 10 -4 7 -9 -10 -15 40 -47 65 -43 18
3 21 1 13 -7 -7 -7 -12 -17 -12 -22 0 -6 4 -5 9 3 6 9 11 10 15 2 4 -6 2 -11
-3 -11 -6 0 -11 -4 -11 -10 0 -5 3 -9 8 -9 16 3 32 -1 31 -8 -3 -21 2 -33 12
-27 8 4 7 9 -2 15 -8 5 -11 9 -7 9 4 0 -1 18 -13 39 -18 36 -40 51 -79 55 -8
0 -15 8 -15 16 0 30 -29 27 -62 -7 -15 -16 -23 -22 -19 -15 4 6 0 19 -8 28
-15 14 -20 11 -17 -8 0 -4 -6 -5 -15 -1 -9 3 -11 9 -6 12 5 3 1 15 -9 25 -11
11 -19 14 -19 8 0 -7 -5 -12 -10 -12 -6 0 -3 11 7 24 12 15 20 20 25 13 4 -6
10 -8 15 -4 10 11 -17 26 -36 20 -11 -3 -10 0 4 11 19 16 19 17 1 34 -11 9
-16 12 -12 6z m-34 -18 c0 -3 -4 -8 -10 -11 -5 -3 -10 -1 -10 4 0 6 5 11 10
11 6 0 10 -2 10 -4z m35 -46 c3 -5 1 -10 -4 -10 -6 0 -11 5 -11 10 0 6 2 10 4
10 3 0 8 -4 11 -10z m125 -78 c0 -4 -9 -13 -20 -20 -19 -12 -20 -11 -8 8 13
20 28 27 28 12z"/>
<path d="M4460 1119 c-8 -13 -17 -18 -28 -14 -13 5 -13 2 3 -15 21 -23 29 -26
22 -7 -4 10 3 13 21 12 14 0 27 -7 30 -15 2 -9 0 -11 -5 -5 -11 13 -33 17 -33
6 0 -24 26 -29 50 -9 14 11 20 17 14 14 -7 -3 -17 1 -24 9 -7 8 -19 15 -26 15
-8 0 -14 5 -14 11 0 5 5 7 12 3 7 -4 8 -3 4 4 -10 16 -14 15 -26 -9z"/>
<path d="M4573 991 c1 -13 6 -20 14 -17 16 7 27 -11 12 -20 -8 -5 -9 -3 -4 6
5 8 4 11 -3 6 -6 -4 -9 -13 -5 -22 4 -11 8 -12 19 -3 12 9 13 9 9 -3 -4 -10 7
-24 32 -40 21 -14 42 -25 46 -26 5 0 15 -9 23 -19 7 -10 14 -15 14 -11 0 4 11
-4 24 -17 16 -16 31 -22 42 -18 11 4 15 3 11 -5 -4 -6 6 -20 23 -32 28 -20 34
-18 32 10 0 3 8 6 19 6 19 0 19 -1 3 -13 -10 -7 -15 -16 -11 -19 13 -13 38 18
31 40 -8 25 -1 20 16 -13 10 -19 10 -22 -2 -16 -7 4 -2 -2 11 -13 20 -17 21
-20 7 -25 -11 -5 -15 -3 -10 5 4 7 3 8 -4 4 -19 -11 -14 -19 26 -46 20 -14 40
-29 43 -33 4 -5 16 -4 28 2 12 7 25 9 30 6 5 -3 8 3 6 12 -1 11 -10 17 -22 16
-15 -2 -20 3 -19 20 1 13 -5 23 -14 23 -8 1 -18 3 -22 4 -5 1 -14 3 -20 4 -7
1 -12 9 -12 19 1 9 -2 15 -6 12 -4 -2 -12 7 -19 21 -6 14 -15 23 -20 20 -4 -3
-16 3 -26 14 -10 11 -21 17 -26 15 -4 -3 -10 -1 -13 4 -7 11 -46 3 -46 -10 0
-4 15 -7 34 -5 26 2 33 -1 28 -13 -3 -9 -1 -12 6 -7 9 6 9 1 1 -18 -13 -27
-29 -26 -29 2 0 15 2 15 11 2 9 -13 10 -13 6 0 -2 8 -12 14 -22 12 -9 -2 -15
0 -12 5 3 5 -3 10 -14 11 -43 4 -49 6 -49 15 0 5 7 6 16 3 14 -5 15 -4 4 8
-13 17 -30 17 -43 1 -5 -5 -5 0 -2 13 6 20 4 22 -19 18 -15 -3 -24 -1 -21 4 3
4 16 7 30 6 13 -2 22 0 20 4 -3 5 2 11 11 14 8 3 12 2 9 -4 -3 -5 -2 -17 3
-26 8 -15 10 -15 16 1 7 19 -20 58 -34 50 -4 -3 -20 5 -36 17 -29 23 -29 24
-8 -26 3 -7 -2 -16 -11 -20 -10 -4 -19 2 -27 19 -6 13 -15 22 -19 19 -11 -7
-31 34 -23 48 4 7 3 8 -5 4 -6 -4 -18 -2 -26 4 -11 9 -14 7 -12 -9z m81 -77
c7 -19 2 -18 -19 6 -16 17 -16 20 -3 15 9 -4 19 -13 22 -21z m76 6 c0 -4 -6
-10 -13 -13 -7 -3 -13 3 -13 13 0 10 6 16 13 13 7 -3 13 -9 13 -13z m160 -120
c0 -5 -4 -10 -10 -10 -5 0 -10 5 -10 10 0 6 5 10 10 10 6 0 10 -4 10 -10z
m109 -73 c9 4 5 -3 -9 -15 -14 -12 -20 -21 -14 -22 5 0 14 4 20 10 6 6 10 3
11 -10 1 -11 -1 -20 -3 -20 -11 0 -49 23 -56 34 -10 15 13 39 25 27 5 -5 17
-7 26 -4z m51 -41 c0 -2 -7 -7 -16 -10 -8 -3 -12 -2 -9 4 6 10 25 14 25 6z"/>
<path d="M4956 721 c-4 -5 -2 -12 3 -15 5 -4 12 -2 15 3 4 5 2 12 -3 15 -5 4
-12 2 -15 -3z"/>
<path d="M4781 881 c-11 -21 -2 -35 15 -23 11 8 12 27 2 37 -3 4 -11 -2 -17
-14z"/>
<path d="M4894 745 c-9 -22 1 -29 15 -11 8 10 9 16 1 21 -5 3 -13 -1 -16 -10z"/>
<path d="M5105 650 c-4 -6 -11 -8 -16 -5 -20 13 -8 -4 14 -18 21 -14 23 -13
24 4 2 22 -13 34 -22 19z"/>
<path d="M5163 612 c-8 -5 -4 -16 14 -36 14 -16 28 -25 33 -20 12 12 -32 65
-47 56z m32 -32 l20 -25 -22 19 c-13 11 -23 24 -23 29 0 6 1 8 3 6 1 -2 11
-15 22 -29z"/>
<path d="M5270 522 c0 -5 7 -9 15 -9 8 0 12 4 9 9 -3 4 -9 8 -15 8 -5 0 -9 -4
-9 -8z"/>
<path d="M5410 422 c0 -6 9 -12 20 -15 11 -3 20 -3 20 -1 0 2 -9 8 -20 14 -11
6 -20 7 -20 2z"/>
</g>
</svg>
